<?xml version="1.0" standalone="no"?>
<!DOCTYPE svg PUBLIC "-//W3C//DTD SVG 1.1//EN" "http://www.w3.org/Graphics/SVG/1.1/DTD/svg11.dtd">
<svg xmlns="http://www.w3.org/2000/svg">
<metadata>Copyright (C) 2021 by original authors @ fontello.com</metadata>
<defs>
<font id="humaniq" horiz-adv-x="1000" >
<font-face font-family="humaniq" font-weight="400" font-stretch="normal" units-per-em="1000" ascent="850" descent="-150" />
<missing-glyph horiz-adv-x="1000" />
<glyph glyph-name="arrow-left" unicode="&#xe800;" d="M577 773l-50 49c-21 21-55 21-76 0l-434-434c-21-21-21-55 0-76l434-434c21-21 55-21 76 0l50 50c21 21 20 56-1 76l-270 257h642c30 0 54 24 54 53v72c0 30-24 54-54 54h-642l270 256c22 21 22 55 1 77z" horiz-adv-x="1000" />

<glyph glyph-name="arrow-right" unicode="&#xe801;" d="M426 770l49 49c21 21 55 21 76 0l434-434c21-21 21-55 0-75l-434-435c-21-21-55-21-76 0l-49 50c-22 21-21 56 0 77l270 256h-642c-30 0-54 24-54 54v71c0 30 24 54 54 54h642l-270 256c-21 21-22 56 0 77z" horiz-adv-x="1000" />

<glyph glyph-name="arrow-to-bottom" unicode="&#xe802;" d="M496 849c-34 0-62-28-62-62l1-566-115 114c-25 24-64 23-88-1-24-24-24-63 0-87l133-133c73-73 192-73 265 0l133 133c25 24 25 63 2 88-24 25-64 26-89 2 0-1-1-1-1-2l-116-115-1 567c0 34-28 62-62 62z m-324-871c-35 0-64-28-64-63 0-35 29-63 64-63h652c35 0 63 28 63 63 0 35-28 63-63 63z" horiz-adv-x="1000" />

<glyph glyph-name="arrow-to-top" unicode="&#xe803;" d="M500 849c-48 0-96-18-133-54l0 0-134-134c-24-25-24-65 1-89 25-23 63-23 88 0l116 116 1-568c0-35 28-63 63-63 34 0 62 28 62 63l-1 568 116-116c24-25 64-25 89-1 25 24 25 63 1 88 0 1-1 1-1 2l-135 134c-36 36-84 54-133 54z m-330-873c-35 0-63-28-63-64 0-35 28-63 63-63h657c36 0 64 28 64 63 0 36-28 64-64 64z" horiz-adv-x="1000" />

<glyph glyph-name="backspace" unicode="&#xe804;" d="M899 659h-579a100 100 0 0 1-70-30l-235-235c-20-19-20-51 0-70l235-235c18-19 44-30 70-30h579c55 0 100 45 100 100v400c0 55-45 100-100 100z m-132-397c9-10 9-25 0-35l-36-35c-9-10-25-10-35 0l-97 96-97-96c-9-10-25-10-35 0l-35 35c-10 10-10 25 0 35l97 97-97 97c-10 10-10 25 0 35l35 35c10 10 26 10 35 0l97-96 97 96c10 10 26 10 35 0l36-35c9-10 9-25 0-35l-97-97z" horiz-adv-x="1000" />

<glyph glyph-name="camera" unicode="&#xe805;" d="M211 849c-55 0-108-22-147-61-39-39-61-92-61-147v-42c0-11 4-22 12-29 8-8 18-13 29-13 11 0 22 5 30 13 8 7 12 18 12 29v42c0 33 13 65 37 88 23 24 55 37 88 37h41c11 0 22 4 30 12 7 8 12 18 12 29 0 11-5 22-12 30-8 8-19 12-30 12z m540 0c-11 0-22-4-30-12-7-8-12-19-12-30 0-11 5-21 12-29 8-8 19-12 30-12h41c33 0 65-13 88-37 24-23 37-55 37-88v-42c0-11 4-22 12-29 8-8 18-13 29-13 11 0 22 5 30 13 8 7 12 18 12 29v42c0 55-22 108-61 147-39 39-92 61-147 61z m-351-316c-41 0-74-34-74-75v-217c0-41 33-74 74-74h203c41 0 74 33 74 74v217c0 41-33 75-74 75z m-356-392c-11 0-21-5-29-12-8-8-12-19-12-30v-42c0-55 22-108 61-147 39-39 92-61 147-61h41c11 0 22 4 30 12 7 8 12 19 12 30 0 11-5 21-12 29-8 8-19 12-30 12h-41c-33 0-65 13-88 37-24 23-37 55-37 88v42c0 11-4 22-12 30-8 7-19 12-30 12z m914 0c-11 0-21-5-29-12-8-8-12-19-12-30v-42c0-33-13-65-37-88-23-24-55-37-88-37h-41c-11 0-22-4-30-12-7-8-12-18-12-29 0-11 5-22 12-30 8-8 19-12 30-12h41c55 0 108 22 147 61 39 39 61 92 61 147v42c0 11-4 22-12 30-8 7-19 12-30 12z" horiz-adv-x="1000" />

<glyph glyph-name="check-circle" unicode="&#xe806;" d="M984 350c0-267-216-484-484-484s-484 217-484 484 217 484 484 484 484-216 484-484z m-540-256l359 359c13 12 13 32 0 44l-44 44c-12 13-32 13-44 0l-293-293-137 137c-12 12-32 12-44 0l-44-44c-13-12-13-32 0-44l203-203c12-13 32-13 44 0z" horiz-adv-x="1000" />

<glyph glyph-name="clock-arrows" unicode="&#xe807;" d="M347 850a69 69 0 0 1-69-70v-414c0-37 14-72 40-98l396-396a69 69 0 0 1 98 0 69 69 0 0 1 0 98l-395 396v414a69 69 0 0 1-70 70z" horiz-adv-x="1000" />

<glyph glyph-name="clone" unicode="&#xe808;" d="M906 850c52 0 94-42 94-94v-562c0-52-42-94-94-94h-562c-52 0-94 42-94 94v562c0 52 42 94 94 94h562m-562-812c-86 0-156 70-156 156v406h-94c-52 0-94-42-94-94v-562c0-52 42-94 94-94h562c52 0 94 42 94 94v94h-406z" horiz-adv-x="1000" />

<glyph glyph-name="cog" unicode="&#xe809;" d="M999 350c0 38-27 77-60 89-33 12-65 40-74 63-9 22-7 65 8 97 15 32 6 79-20 105-26 26-73 35-105 20-32-15-74-17-97-8-22 9-51 41-63 74-12 33-51 60-88 60-38 0-77-27-89-60-12-33-40-65-63-74-22-9-65-7-97 8-31 15-78 6-105-20-26-26-35-73-20-105 15-32 17-75 8-97-9-23-41-51-74-63-33-12-60-51-60-89 0-37 27-76 60-88 33-12 65-40 74-63 9-22 7-65-8-97-15-32-6-79 20-105 27-26 74-35 105-20 32 15 75 17 97 8 23-9 51-42 63-75 12-32 51-59 89-59 37 0 76 27 88 59 12 33 41 66 63 75 23 9 65 7 97-8 32-15 79-6 105 20 26 26 35 73 20 105-15 32-17 75-8 97 9 23 41 51 74 63 33 12 60 51 60 88z m-499-183c-102 0-184 82-184 183 0 102 82 184 184 184 101 0 183-82 183-184 0-101-82-183-183-183z" horiz-adv-x="1000" />

<glyph glyph-name="cross" unicode="&#xe80a;" d="M1001 749l-100 101-400-400-400 400-101-101 400-400-400-400 101-100 400 400 400-400 100 100-399 400z" horiz-adv-x="1000" />

<glyph glyph-name="done" unicode="&#xe80b;" d="M907 703a74 74 0 0 1-33-19l-536-536c0 0 0 0 0 0l-212 213a74 74 0 0 1-104 0 74 74 0 0 1 0-104l212-213c57-57 151-57 208 0l536 536a74 74 0 0 1 0 104 74 74 0 0 1-71 19z" horiz-adv-x="1000" />

<glyph glyph-name="double-arrows" unicode="&#xe80c;" d="M754 748c-25 0-45-20-45-44v-582l-127 127c-17 17-45 17-62 0-17-17-17-45 0-62l203-203c17-18 45-18 62 0l203 203c17 17 17 45 0 62-17 17-45 17-62 0l-128-127v582c0 24-20 44-44 44z m-505-22c-12 0-23-4-32-13l-202-203c-18-17-18-45 0-62 17-17 45-17 62 0l128 127v-582c0-24 19-44 44-44 24 0 44 20 44 44v582l127-127c17-17 45-17 63 0 17 17 17 45 0 62l-203 203c-9 9-20 13-31 13z" horiz-adv-x="1000" />

<glyph glyph-name="down" unicode="&#xe80d;" d="M21 587c7 6 14 12 23 15 9 4 18 6 28 6 9 0 19-2 27-6 9-3 17-9 24-15l327-328c7-7 15-12 24-16 8-3 18-5 27-5 10 0 19 2 28 5 8 4 16 9 23 16l328 328c6 6 14 12 23 15 9 4 18 6 28 6 9 0 18-2 27-6 9-3 17-9 23-15 14-14 21-32 21-51 0-19-7-37-21-50l-328-329c-40-40-95-63-152-63-57 0-111 23-152 63l-328 329c-13 13-21 31-21 50 0 19 8 37 21 51z" horiz-adv-x="1000" />

<glyph glyph-name="frame" unicode="&#xe80e;" d="M100 843c-54 0-98-44-98-98v-798c0-54 44-98 98-98h801c55 0 99 44 99 98v798c0 54-44 98-99 98z m0-13h801c48 0 86-37 86-85v-798c0-47-38-85-86-85h-801c-48 0-86 38-86 85v798c0 17 5 32 13 45 15 25 42 40 73 40z" horiz-adv-x="1000" />

<glyph glyph-name="globe" unicode="&#xe80f;" d="M487 850c-98-50-172-135-216-244 66-33 139-52 216-54z m40-6v-292c72 4 142 23 205 55-43 104-113 187-205 237z m-128-1c-100-21-189-71-257-142 28-28 59-53 93-74 37 88 93 162 164 216z m206 0c70-54 126-127 163-215 33 21 64 46 92 75-68 69-157 119-255 140z m282-171c-31-32-67-60-105-83 24-68 36-142 38-222h183c-3 116-46 222-116 305z m-772-1c-69-83-112-189-115-304h183c2 79 15 154 37 221-38 23-73 51-105 83z m631-102c-67-34-142-54-219-58v-144h252c-1 72-13 140-33 202z m-489-1c-20-61-31-129-33-201h263l0 144c-81 2-160 22-230 57z m-257-242c6-111 48-213 115-294 32 32 67 60 105 83-21 65-34 135-36 211z m224 0c3-68 14-132 33-191 70 35 149 55 230 57v134z m303 0v-134c77-4 152-24 219-58 19 59 31 123 33 192z m293 0c-3-76-15-147-38-212 38-23 74-51 105-83 68 81 110 183 116 295z m-333-174c-77-3-150-22-216-55 44-109 118-194 216-244z m40-1v-292c92 50 162 133 205 237-63 32-133 51-205 55z m-292-74c-34-21-65-46-93-75 68-71 157-121 257-142-71 54-127 128-164 217z m533-2c-37-88-93-161-163-215 98 21 187 71 255 141-28 28-59 53-92 74z" horiz-adv-x="1000" />

<glyph glyph-name="home" unicode="&#xe810;" d="M487 543l-320-264v-284a28 28 0 0 1 27-28l195 0a28 28 0 0 1 28 28v166a28 28 0 0 0 27 28h111a28 28 0 0 0 28-28v-166a28 28 0 0 1 28-28l194 0a28 28 0 0 1 28 28v284l-320 264a21 21 0 0 1-26 0z m505-179l-145 119v241a21 21 0 0 1-21 20h-97a21 21 0 0 1-21-20v-126l-155 127a83 83 0 0 1-106 0l-439-361a21 21 0 0 1-3-30l44-54a21 21 0 0 1 29-2l409 336a21 21 0 0 0 26 0l409-336a21 21 0 0 1 29 2l44 54a21 21 0 0 1-3 30z" horiz-adv-x="1000" />

<glyph glyph-name="lock" unicode="&#xe811;" d="M844 413h-47v140c0 164-133 297-297 297-164 0-297-133-297-297v-140h-47c-51 0-93-42-93-94v-375c0-52 42-94 93-94h688c52 0 94 42 94 94v375c0 52-42 94-94 94z m-203 0h-282v140c0 78 64 141 141 141 78 0 141-63 141-141z" horiz-adv-x="1000" />

<glyph glyph-name="max" unicode="&#xe812;" d="M3 503v-334h59v110l-6 147 100-257h42l100 257-6-147v-110h58v334h-76l-97-256-98 256z m519 0l-128-334h61l28 77h131l28-77h61l-128 334z m197 0l103-166-105-168h68l73 122 73-122h69l-105 168 102 166h-68l-71-121-71 121z m-171-71l49-139h-98z" horiz-adv-x="1000" />

<glyph glyph-name="redo-alt" unicode="&#xe813;" d="M501 834c129 0 247-51 334-134l69 70c30 30 80 9 80-33v-262c0-26-21-47-46-47h-262c-42 0-63 51-33 80l81 82c-60 56-138 87-221 88-181 2-333-144-331-331 1-177 145-325 328-325 80 0 156 29 216 81 9 8 23 8 32-1l78-77c9-10 9-26-1-35-86-77-200-124-325-124-267 0-484 217-484 484 0 267 218 485 485 484z" horiz-adv-x="1000" />

<glyph glyph-name="search" unicode="&#xe814;" d="M986-15l-194 195c-9 9-21 14-34 14h-31c54 69 86 155 86 250 0 224-182 406-407 406s-406-182-406-406 182-406 406-406c95 0 181 32 250 85v-31c0-13 5-25 14-34l195-194c18-19 48-19 66 0l55 55c19 18 19 48 0 66z m-580 209c-138 0-250 112-250 250 0 138 112 250 250 250 138 0 250-112 250-250 0-138-111-250-250-250z" horiz-adv-x="1000" />

<glyph glyph-name="up" unicode="&#xe815;" d="M21 108c7-7 14-12 23-16 9-4 18-5 28-5 9 0 19 1 27 5 9 4 17 9 24 16l327 328c7 6 15 12 24 15 8 4 18 6 27 6 10 0 19-2 28-6 8-3 16-9 23-15l328-328c6-7 14-12 23-16 9-4 18-5 28-5 9 0 18 1 27 5 9 4 17 9 23 16 14 13 21 31 21 50 0 19-7 37-21 51l-328 328c-40 40-95 63-152 63-57 0-111-23-152-63l-328-328c-13-14-21-32-21-51 0-19 8-37 21-50z" horiz-adv-x="1000" />

<glyph glyph-name="wallet" unicode="&#xe816;" d="M145 764c-80 0-145-65-145-145v-540c0-80 65-145 145-145h713c80 0 145 65 145 145v125h-270c-80 0-145 65-145 145 0 80 65 145 145 145h270v125c0 80-65 145-145 145z m585-327c-48 0-87-39-87-87 0-47 39-86 87-86h270v173h-270z m0-58h38c16 0 29-13 29-29 0-16-13-28-29-28h-38c-16 0-29 12-29 28 0 16 13 29 29 29z" horiz-adv-x="1000" />

<glyph glyph-name="warning" unicode="&#xe817;" d="M509 850c-13 0-25-2-36-7-11-5-21-12-30-21-8-9-15-19-19-30-4-12-6-24-6-36l23-485c1-17 8-33 21-44 12-12 28-18 45-18 17 0 33 6 45 18 12 11 19 27 20 44l27 484c0 13-2 25-6 36-4 12-11 22-19 31-8 9-19 16-30 21-11 4-23 7-35 7z m0-794c-57 0-103-46-103-103 0-56 46-102 103-102 56 0 102 46 102 102 0 57-46 103-102 103z" horiz-adv-x="1000" />
</font>
</defs>
</svg>
