<?xml version="1.0" encoding="UTF-8" standalone="no"?>
<svg
        width="512"
        height="512"
        viewBox="0 0 512 512"
        fill="none"
        version="1.1"
        xmlns="http://www.w3.org/2000/svg"
>
    <path
            fill="currentColor"
            d="m 247.44141,8.25 c -6.12213,0 -12.24506,2.334857 -16.91602,7.005859 L 7.2558594,238.52539 c -9.3420055,9.34191 -9.3420055,24.48817 0,33.83008 L 230.52539,495.625 c 9.34191,9.34223 24.48817,9.34223 33.83008,0 9.34191,-9.34222 9.34191,-24.48589 0,-33.82812 L 81.923828,279.36328 H 486.6582 c 13.21117,0 23.92188,-10.71038 23.92188,-23.92187 0,-13.21148 -10.71071,-23.92188 -23.92188,-23.92188 H 81.923828 L 264.35547,49.087891 c 9.34191,-9.34191 9.34191,-24.490026 0,-33.832032 C 259.68451,10.584857 253.56353,8.25 247.44141,8.25 Z"/>
</svg>
