<?xml version="1.0" encoding="UTF-8" standalone="no"?>
<svg
        aria-hidden="true"
        focusable="false"
        role="img"
        width="512"
        height="512"
        viewBox="0 0 512 512"
        version="1.1"
        xmlns="http://www.w3.org/2000/svg"
>
    <path
            fill="currentColor"
            d="M 256.16016,0.29296875 C 231.49092,0.29284538 206.82223,9.6684543 188,28.419922 l -0.002,0.002 -68.80078,68.544922 c -12.32856,12.716463 -11.97503,32.981483 0.78906,45.263673 12.45158,11.98108 32.19101,11.98108 44.64258,0 l 59.57031,-59.369142 0.45117,290.917972 c 0,17.67822 14.38569,32.00781 32.13086,32.00781 17.74554,0 32.13086,-14.32959 32.13086,-32.00781 l -0.44922,-290.554691 59.22852,59.005861 c 12.32856,12.71646 32.66948,13.06929 45.43359,0.78711 12.76335,-12.28218 13.11579,-32.54722 0.78906,-45.263674 -0.25889,-0.267074 -0.5221,-0.528324 -0.78906,-0.785156 L 324.32031,28.421875 C 305.49844,9.6699139 280.82939,0.29309212 256.16016,0.29296875 Z M 87.259766,447.4668 c -18.023449,0 -32.634766,14.55743 -32.634766,32.51367 0,17.95628 14.611317,32.50976 32.634766,32.50976 H 423.64648 c 18.02351,0 32.63477,-14.55348 32.63477,-32.50976 0,-17.95624 -14.61126,-32.51367 -32.63477,-32.51367 z"/>
</svg>
