<?xml version="1.0" encoding="UTF-8" standalone="no"?>
<svg
        aria-hidden="true"
        focusable="false"
        role="img"
        viewBox="0 0 512 512"
        version="1.1"
        width="512"
        height="512"
        xmlns="http://www.w3.org/2000/svg"
>
    <path
            fill="currentColor"
            d="m 217.87482,41.10322 25.39014,-25.390136 c 10.75078,-10.7507786 28.13501,-10.7507786 38.77142,0 L 504.37163,237.93396 c 10.75078,10.75078 10.75078,28.13502 0,38.77143 L 282.03638,499.04064 c -10.75078,10.75078 -28.13501,10.75078 -38.77142,0 L 217.87482,473.6505 c -10.86515,-10.86515 -10.63641,-28.59249 0.45748,-39.2289 L 356.14813,303.12486 H 27.448796 C 12.237588,303.12486 0,290.88727 0,275.67606 v -36.5984 c 0,-15.2112 12.237588,-27.44879 27.448796,-27.44879 H 356.14813 L 218.3323,80.332125 C 207.12404,69.695717 206.8953,51.968369 217.87482,41.10322 Z"
    />
</svg>
