<?xml version="1.0" encoding="UTF-8" standalone="no"?>
<svg
        aria-hidden="true"
        focusable="false"
        role="img"
        viewBox="0 0 512 512"
        version="1.1"
        width="512"
        height="512"
        id="svg4"
        xmlns="http://www.w3.org/2000/svg"
>
    <defs
            id="defs8"/>
    <path
            d="m 295.14637,39.643888 -25.39013,-25.39014 c -10.75078,-10.750778 -28.13502,-10.750778 -38.77143,0 L 8.6495673,236.47463 c -10.7507785,10.75078 -10.7507785,28.13502 0,38.77143 L 230.98481,497.58131 c 10.75078,10.75077 28.13502,10.75077 38.77143,0 l 25.39013,-25.39014 c 10.86515,-10.86515 10.63641,-28.5925 -0.45748,-39.22891 L 156.87306,301.66552 H 485.5724 c 15.21121,0 27.4488,-12.23759 27.4488,-27.44879 v -36.5984 c 0,-15.21121 -12.23759,-27.44879 -27.4488,-27.44879 H 156.87306 L 294.68889,78.872793 c 11.20826,-10.636409 11.437,-28.363756 0.45748,-39.228905 z"
            id="path2"/>
</svg>
