<?xml version="1.0" encoding="UTF-8" standalone="no"?>
<svg
        aria-hidden="true"
        focusable="false"
        role="img"
        width="512"
        height="512"
        viewBox="0 0 512 512"
        version="1.1"
        xmlns="http://www.w3.org/2000/svg"
>
    <path
            d="m 253.9375,0.51367188 c -17.62265,0 -31.9082,14.28570612 -31.9082,31.90820312 l 0.44726,289.878905 -58.73242,-58.73437 c -12.6759,-12.24304 -32.87646,-11.89039 -45.11914,0.78515 -11.94292,12.36556 -11.94292,31.96843 0,44.33399 l 68.32617,68.34961 c 37.38297,37.38224 97.99288,37.38224 135.37695,0 l 68.32813,-68.32813 c 12.67591,-12.24268 13.02553,-32.44323 0.7832,-45.11914 -12.24267,-12.67554 -32.44127,-13.02588 -45.11718,-0.7832 -0.26621,0.25637 -0.5288,0.51809 -0.78516,0.7832 l -59.20117,59.17969 -0.48828,-290.345705 c 0,-17.622497 -14.28752,-31.90820312 -31.91016,-31.90820312 z M 87.914062,446.23828 c -17.898113,0 -32.40625,14.50634 -32.40625,32.4043 10e-7,17.89797 14.508138,32.4082 32.40625,32.4082 H 421.95703 c 17.89797,0 32.4082,-14.51023 32.4082,-32.4082 0,-17.89796 -14.51023,-32.4043 -32.4082,-32.4043 z"/>
</svg>
