<?xml version="1.0" encoding="UTF-8" standalone="no"?>
<svg
   width="512"
   height="512"
   viewBox="0 0 512 512"
   fill="none"
   version="1.1"
   xmlns="http://www.w3.org/2000/svg"
   xmlns:svg="http://www.w3.org/2000/svg">
  <path
     fill="currentColor"
     d="m 263.10156,10.197266 c -6.11827,0 -12.23628,2.335841 -16.90429,7.003906 -9.33603,9.336129 -9.33603,24.47256 0,33.808594 L 428.51367,233.32617 H 24.035156 c -13.203177,0 -23.90624975,10.70503 -23.90624975,23.90821 0,13.20317 10.70307275,23.90624 23.90624975,23.90624 H 428.51367 l -182.3164,182.31836 c -9.33603,9.33635 -9.33603,24.47029 0,33.80664 9.33603,9.33635 24.47255,9.33635 33.80859,0 L 503.13477,274.13867 c 9.33635,-9.33603 9.33635,-24.47255 0,-33.80859 L 280.00586,17.201172 c -4.66802,-4.668065 -10.78602,-7.003906 -16.9043,-7.003906 z" />
</svg>
