<?xml version="1.0" encoding="UTF-8" standalone="no"?>
<svg
   aria-hidden="true"
   focusable="false"
   role="img"
   viewBox="0 0 512 512"
   version="1.1"
   width="512"
   height="512"
   xmlns="http://www.w3.org/2000/svg"
   xmlns:svg="http://www.w3.org/2000/svg">
  <path
     fill="currentColor"
     d="m 460.19789,98 h -296.2051 a 51.109242,51.109242 0 0 0 -36.16077,14.98043 L 7.4852164,233.31925 c -9.9869552,9.98695 -9.9869552,26.17381 0,36.15278 L 127.83202,389.81883 c 9.58748,9.58748 22.59449,14.98043 36.15278,14.98043 h 296.21309 c 28.24311,0 51.13321,-22.8901 51.13321,-51.13321 V 149.13321 C 511.3311,120.8901 488.441,98 460.19789,98 Z m -67.66362,202.98287 c 4.99348,4.99347 4.99348,13.0869 0,18.08038 l -18.07239,18.07239 c -4.99348,4.99348 -13.08691,4.99348 -18.08039,0 l -49.58323,-49.58323 -49.58324,49.58323 c -4.99347,4.99348 -13.0869,4.99348 -18.08038,0 l -18.07239,-18.07239 c -4.99348,-4.99348 -4.99348,-13.08691 0,-18.08038 l 49.58323,-49.58324 -49.58323,-49.58323 c -4.99348,-4.99348 -4.99348,-13.08691 0,-18.08039 l 18.07239,-18.07239 c 4.99348,-4.99348 13.08691,-4.99348 18.08038,0 l 49.58324,49.58323 49.58323,-49.58323 c 4.99348,-4.99348 13.08691,-4.99348 18.08039,0 l 18.07239,18.07239 c 4.99348,4.99348 4.99348,13.08691 0,18.08039 l -49.58323,49.58323 z"
  />
</svg>
