<?xml version="1.0" encoding="UTF-8" standalone="no"?>
<svg
        width="512"
        height="512"
        viewBox="0 0 512 512"
        fill="none"
        version="1.1"
        xmlns="http://www.w3.org/2000/svg"
>
    <path
            d="m 430.0818,510.24836 c -7.8165,-0.0224 -15.54932,-1.59139 -22.75466,-4.62026 -7.20534,-3.02738 -13.73826,-7.45339 -19.22371,-13.02102 L 258.18016,363.44439 128.25539,492.69225 c -8.34397,8.46501 -19.04589,14.22091 -30.708621,16.5161 -11.662731,2.29519 -23.746844,1.02357 -34.675892,-3.65048 C 51.832748,501.11841 42.389,493.45283 35.775387,483.56379 29.161774,473.67475 25.683127,462.02099 25.793703,450.12366 V 108.85465 c 0,-28.014458 11.129279,-54.881326 30.938737,-74.690785 19.809459,-19.80931 46.67633,-30.9381396 74.69079,-30.9381396 h 253.51236 c 13.87126,0 27.60653,2.7321124 40.42284,8.0404856 12.81481,5.308372 24.45961,13.089006 34.26795,22.897654 9.80835,9.808349 17.58899,21.453149 22.89811,34.269452 5.30762,12.814809 8.04063,26.550084 8.04063,40.421333 v 341.26901 c 0.11805,11.88687 -3.34864,23.53466 -9.94731,33.4222 -6.59718,9.88755 -16.023,17.5591 -27.04469,22.01201 -7.43994,3.11255 -15.42678,4.70693 -23.49132,4.69049 z"
            fill="currentColor"
    />
</svg>
