<?xml version="1.0" encoding="UTF-8" standalone="no"?>
<svg
   width="512"
   height="512"
   viewBox="0 0 512 512"
   fill="none"
   version="1.1"
   xmlns="http://www.w3.org/2000/svg"
   xmlns:svg="http://www.w3.org/2000/svg">
  <path
     fill="currentColor"
     d="M 126.79102 0 C 98.468936 0 71.307936 11.250595 51.28125 31.277344 C 31.254501 51.304094 20.001953 78.466977 20.001953 106.78906 L 20.001953 451.80273 C 19.889131 463.83 23.40692 475.61244 30.09375 485.60938 C 36.780582 495.60632 46.325444 503.35575 57.484375 507.8418 C 68.53386 512.56634 80.751931 513.85231 92.542969 511.53516 C 104.33401 509.21479 115.15237 503.39553 123.58789 494.83594 L 254.9375 364.16992 L 386.28711 494.75195 C 391.83345 500.38208 398.43604 504.85442 405.72266 507.91602 C 413.00604 510.97441 420.82567 512.56344 428.72461 512.58594 C 436.87813 512.60206 444.95274 510.99042 452.47461 507.8418 C 463.61885 503.33963 473.14534 495.58678 479.81641 485.58984 C 486.48748 475.5929 489.99226 463.82032 489.87305 451.80273 L 489.87305 106.78906 C 489.87305 92.765305 487.11 78.877933 481.74414 65.921875 C 476.37827 52.965494 468.51208 41.193715 458.5957 31.277344 C 448.67934 21.361103 436.90658 13.495509 423.95117 8.1289062 C 410.99252 2.7622615 397.10933 0 383.08398 0 L 126.79102 0 z M 126.79102 42.714844 L 383.125 42.714844 C 400.11851 42.714844 416.416 49.466114 428.43359 61.482422 C 440.44797 73.498407 447.19922 89.795552 447.19922 106.78906 L 447.19922 451.75781 C 447.20567 455.31893 446.15854 458.79876 444.18945 461.76367 C 442.22035 464.72537 439.41678 467.03923 436.13281 468.41211 C 432.84884 469.78178 429.23045 470.15002 425.74023 469.4668 C 422.24677 468.78358 419.03318 467.08151 416.50977 464.57422 L 270.10156 318.93555 C 266.09989 314.95771 260.68729 312.72461 255.04492 312.72461 C 249.40255 312.72461 243.988 314.95771 239.98633 318.93555 L 93.408203 464.61523 C 90.882863 467.12252 87.672493 468.8285 84.179688 469.51172 C 80.686882 470.19494 77.069128 469.82796 73.785156 468.45508 C 70.500862 467.0854 67.696302 464.77156 65.726562 461.80664 C 63.756824 458.84172 62.71105 455.36064 62.71875 451.80273 L 62.71875 106.78906 C 62.71875 89.795551 69.468389 73.498407 81.484375 61.482422 C 93.50036 49.466114 109.79784 42.714844 126.79102 42.714844 z " />
</svg>
