<?xml version="1.0" encoding="UTF-8" standalone="no"?>
<svg
        aria-hidden="true"
        focusable="false"
        role="img"
        width="512"
        height="512"
        viewBox="0 0 512 512"
        version="1.1"
        xmlns="http://www.w3.org/2000/svg"
>
    <path
            fill="currentColor"
            d="M 107.82617,0.54101562 C 79.630865,0.57488915 52.601279,11.822238 32.664062,31.816406 12.727159,51.810887 1.5103359,78.919029 1.4765625,107.19531 v 21.33203 c 0,5.65725 2.2415961,11.08178 6.2304687,15.08204 3.9888608,4.00025 9.3999148,6.24804 15.0410158,6.24804 5.641104,0 11.050258,-2.24779 15.039062,-6.24804 3.988805,-4.00026 6.230469,-9.42479 6.230469,-15.08204 v -21.33203 c 0,-16.972023 6.722756,-33.24893 18.689453,-45.249998 C 74.673728,49.944245 90.902748,43.203125 107.82617,43.203125 h 21.26953 c 5.64105,0 11.05222,-2.247786 15.04102,-6.248047 3.9888,-4.000262 6.23047,-9.424783 6.23047,-15.082031 0,-5.657248 -2.24167,-11.083666 -6.23047,-15.0839845 -3.9888,-4.0003183 -9.39997,-6.24804687 -15.04102,-6.24804688 z m 276.50781,0 c -5.64076,0 -11.05168,2.24772858 -15.03906,6.24804688 -3.99022,4.0003185 -6.23047,9.4267365 -6.23047,15.0839845 0,5.657248 2.24025,11.081769 6.23047,15.082031 3.98738,4.000261 9.3983,6.248047 15.03906,6.248047 h 21.26954 c 16.9223,0 33.15326,6.741119 45.12109,18.742187 11.96499,12.001069 18.68945,28.277975 18.68945,45.249998 v 21.33203 c 0,5.65725 2.24025,11.08178 6.23047,15.08204 3.98738,4.00025 9.39828,6.24804 15.03906,6.24804 5.64075,0 11.05168,-2.24779 15.03907,-6.24804 3.99022,-4.00026 6.23046,-9.42479 6.23046,-15.08204 V 107.19531 C 511.91908,78.919028 500.70258,51.810887 480.76562,31.816406 460.82869,11.822238 433.79884,0.57488914 405.60352,0.54101562 Z M 204.87109,162.52344 c -20.92442,0 -37.88671,17.01156 -37.88671,37.99609 v 111.27149 c -10e-6,20.98395 16.96229,37.99414 37.88671,37.99414 h 103.68946 c 20.92387,0 37.88867,-17.01019 37.88867,-37.99414 V 200.51953 c 0,-20.98453 -16.9648,-37.99609 -37.88867,-37.99609 z M 22.748047,363.16797 c -5.641101,0 -11.052155,2.24637 -15.0410158,6.24805 -3.9888726,3.99884 -6.2304687,9.42507 -6.2304687,15.08203 v 21.33203 c 0.033774,28.27629 11.2505955,55.38276 31.1874995,75.37695 19.937216,19.99421 46.966803,31.24322 75.162108,31.27735 h 21.26953 c 5.64105,0 11.05222,-2.24832 15.04102,-6.25 3.9888,-3.99884 6.23047,-9.42508 6.23047,-15.08204 0,-5.65698 -2.24167,-11.08319 -6.23047,-15.08203 -3.9888,-4.00168 -9.39997,-6.24804 -15.04102,-6.24804 h -21.26953 c -16.923422,0 -33.152442,-6.74283 -45.119139,-18.74219 -11.966697,-12.00221 -18.689453,-28.27911 -18.689453,-45.25 v -21.33203 c 0,-5.65696 -2.241664,-11.08319 -6.230469,-15.08203 -3.988804,-4.00168 -9.397958,-6.24805 -15.039062,-6.24805 z m 467.935543,0 c -5.64078,0 -11.05168,2.24637 -15.03906,6.24805 -3.99022,3.99884 -6.23047,9.42507 -6.23047,15.08203 v 21.33203 c 0,16.97089 -6.72446,33.24779 -18.68945,45.25 -11.96783,11.99936 -28.19879,18.74219 -45.12109,18.74219 h -21.26954 c -5.64076,0 -11.05168,2.24636 -15.03906,6.24804 -3.99022,3.99884 -6.23047,9.42505 -6.23047,15.08203 0,5.65696 2.24025,11.0832 6.23047,15.08204 3.98738,4.00168 9.3983,6.25 15.03906,6.25 h 21.26954 c 28.19532,-0.0341 55.22517,-11.28314 75.1621,-31.27735 19.93695,-19.99419 31.15351,-47.10066 31.1875,-75.37695 v -21.33203 c 10e-6,-5.65696 -2.24024,-11.08319 -6.23046,-15.08203 -3.98739,-4.00168 -9.39832,-6.24805 -15.03907,-6.24805 z"/>
</svg>
