<?xml version="1.0" encoding="UTF-8" standalone="no"?>
<svg
   width="512"
   height="512"
   viewBox="0 0 512 512"
   fill="none"
   version="1.1"
   id="svg6"
   xmlns="http://www.w3.org/2000/svg"
   xmlns:svg="http://www.w3.org/2000/svg">
  <path
     fill="currentColor"
     d="M 256.14548,1 A 255.14548,255.14548 0 0 0 1,256.14548 255.14548,255.14548 0 0 0 256.14548,511.29095 255.14548,255.14548 0 0 0 511.29095,256.14548 255.14548,255.14548 0 0 0 256.14548,1 Z m -0.16631,54.650299 c 5.91767,3e-6 10.45476,5.564802 11.54466,13.870213 12.77004,130.604298 26.46188,148.917548 121.925,163.037298 6.3829,1.03801 10.88021,7.18425 10.88021,15.28215 0,7.89036 -4.49731,14.36859 -10.88021,15.1991 -95.46294,14.11931 -109.31086,32.5991 -121.92484,163.20341 -1.08988,8.30498 -5.62698,13.8702 -11.54466,13.8702 -5.6064,0 -10.28823,-5.56522 -11.37856,-13.8702 -13.54823,-130.39679 -26.46315,-146.17713 -121.92499,-163.20341 -6.38459,-1.03803 -10.88022,-7.30874 -10.88022,-15.1991 0,-8.0979 4.49563,-14.24414 10.88022,-15.28215 95.46184,-13.91181 109.15538,-32.433 121.92499,-163.037298 1.09033,-8.305411 5.77216,-13.870213 11.37856,-13.870213 z" />
</svg>
