<?xml version="1.0" encoding="UTF-8" standalone="no"?>
<svg
   width="512"
   height="512"
   viewBox="0 0 512 512"
   fill="none"
   version="1.1"
   xmlns="http://www.w3.org/2000/svg"
   xmlns:svg="http://www.w3.org/2000/svg">
  <path
     id="path2"
     fill="currentColor"
     d="M 252.02148,0 C 216.81014,0 188,28.810144 188,64.021484 c 0,35.21134 28.81014,64.019536 64.02148,64.019536 35.21134,0 64.01954,-28.808196 64.01954,-64.019536 C 316.04102,28.810144 287.23282,0 252.02148,0 Z m 0,192.0625 C 216.81014,192.0625 188,220.87069 188,256.08203 c 0,35.21134 28.81014,64.02149 64.02148,64.02149 35.21134,0 64.01954,-28.81015 64.01954,-64.02149 0,-35.21134 -28.8082,-64.01953 -64.01954,-64.01953 z m 0,192.06055 c -35.21134,0 -64.02148,28.81014 -64.02148,64.02148 0,35.21134 28.81014,64.01953 64.02148,64.01953 35.21134,0 64.01954,-28.80819 64.01954,-64.01953 0,-35.21134 -28.8082,-64.02148 -64.01954,-64.02148 z" />
</svg>
