<?xml version="1.0" encoding="UTF-8" standalone="no"?>
<svg
   width="512"
   height="512"
   viewBox="0 0 512 512"
   fill="none"
   version="1.1"
   id="svg4"
   xmlns="http://www.w3.org/2000/svg"
   xmlns:svg="http://www.w3.org/2000/svg">
  <path
     d="m 511.56243,255.78121 c 0,-19.02501 -13.70988,-39.30789 -30.60849,-45.29003 -16.90146,-5.98245 -33.2828,-20.63189 -38.05172,-32.18412 -4.76607,-11.5525 -3.52976,-33.53688 4.18628,-49.72954 7.7047,-16.19237 3.03244,-40.237795 -10.42166,-53.692739 -13.44272,-13.454944 -37.48899,-18.11613 -53.6913,-10.411148 -16.19381,7.705267 -38.1455,8.963143 -49.66703,4.196233 C 321.78699,63.902958 307.12787,47.499141 301.12554,30.598539 295.109,13.698021 274.8062,0 255.78121,0 236.7562,0 216.4523,13.698021 210.43831,30.598539 204.42403,47.499141 189.77489,63.902958 178.25422,68.669866 166.73354,73.436776 144.77018,72.1789 128.57752,64.473633 112.38515,56.768651 88.339725,61.429837 74.884781,74.884781 61.429837,88.339725 56.768651,112.37463 64.473633,128.57752 c 7.705267,16.20317 8.931314,38.16653 4.143372,49.70823 -4.787939,11.54198 -21.117864,26.22298 -38.018466,32.20543 C 13.698021,216.47332 0,236.7562 0,255.78121 c 0,19.02499 13.698021,39.32779 30.598539,45.34433 16.900602,6.00233 33.251557,20.68417 38.039499,32.20285 4.788223,11.51016 3.540862,33.46471 -4.164405,49.65565 -7.704982,16.19381 -3.043796,40.24008 10.411148,53.69417 13.454944,13.44273 37.489849,18.11499 53.692739,10.41029 16.20317,-7.70469 38.15602,-8.95235 49.6767,-4.17492 11.53118,4.77743 26.16981,21.22418 32.18409,38.09153 6.01399,16.87017 26.31789,30.55732 45.3429,30.55732 19.02499,0 39.32779,-13.68715 45.34433,-30.55732 6.00233,-16.86735 20.64154,-33.2942 32.16023,-38.09153 11.52152,-4.78879 33.50733,-3.52977 49.68977,4.1863 16.20231,7.70471 40.24858,3.03244 53.6913,-10.41029 13.4541,-13.45694 18.12636,-37.50038 10.42166,-53.69417 -7.70469,-16.20232 -8.97222,-38.15687 -4.20617,-49.67555 4.76606,-11.52152 21.18152,-26.18062 38.08014,-32.18581 16.90146,-6.02506 30.59996,-26.32786 30.59996,-45.35285 z M 255.78121,349.6387 c -51.89602,0 -93.85693,-41.96232 -93.85693,-93.75177 0,-51.89602 41.96091,-93.85693 93.85693,-93.85693 51.77865,0 93.75233,41.96091 93.75233,93.85693 0,51.78945 -41.96232,93.75177 -93.75233,93.75177 z"
     fill="currentColor"
     />
</svg>
