<?xml version="1.0" encoding="UTF-8" standalone="no"?>
<svg
   width="512"
   height="512"
   viewBox="0 0 512 512"
   version="1.1"
   xmlns="http://www.w3.org/2000/svg"
   xmlns:svg="http://www.w3.org/2000/svg">
  <path
     d="M 28.441406,0 C 21.161817,6.06675e-4 13.883723,2.777451 8.3300781,8.3320312 -2.7772462,19.441138 -2.7771242,37.451211 8.3320312,48.558594 L 215.79102,255.98242 8.3320312,463.44141 c -11.1080888,11.10934 -11.1098109,29.11899 -0.00195,40.22656 11.1078049,11.10956 29.1200709,11.10951 40.2285159,0.002 L 256.01758,296.22656 463.44141,503.66797 c 11.10755,11.10956 29.11901,11.10951 40.22656,0.002 11.10956,-11.10756 11.10951,-29.119 0.002,-40.22656 L 296.23438,255.99219 503.66992,48.558594 c 11.10756,-11.107916 11.10756,-29.11822 0,-40.2265628 -11.10755,-11.1083781 -29.11918,-11.1069914 -40.22851,0 L 256,215.73828 48.556641,8.3300781 C 43.002063,2.7764135 35.720995,-6.06675e-4 28.441406,0 Z"
     fill="currentColor"
  />
</svg>