<?xml version="1.0" encoding="UTF-8" standalone="no"?>
<svg
        width="520"
        height="520"
        viewBox="0 0 520 520"
        fill="none"
        version="1.1"
        id="svg4"
        xmlns="http://www.w3.org/2000/svg"
>
    <path
            fill="currentColor"
            d="m 157.5998,2.5396374 c -27.00492,0 -43.8198,-1.2085287 -61.717937,7.9109456 C 82.275436,17.383478 71.171282,28.424546 64.238079,42.031581 55.118603,59.929716 56.327133,76.807063 56.327132,103.8123 v 311.79172 c 1e-6,27.00591 -1.2073,43.88333 7.910947,61.78072 6.926111,13.5912 17.991414,24.64639 31.580995,31.581 17.898316,9.12013 34.775486,7.91096 61.780726,7.91096 h 202.16861 c 27.00587,0 43.88314,1.20804 61.78072,-7.91096 13.60605,-6.9332 24.64781,-17.97495 31.581,-31.581 9.11892,-17.89755 7.91096,-34.77481 7.91096,-61.78072 V 195.72996 c 0,-11.79406 0.23145,-19.55782 -2.00913,-28.88123 -1.77061,-7.38447 -4.69387,-14.43266 -8.66436,-20.9075 -5.00717,-8.17672 -10.68108,-13.50865 -19.02395,-21.84928 L 339.48878,32.174292 C 331.14946,23.835297 325.81239,18.221181 317.63949,13.213136 311.16856,9.2477914 304.11248,6.3205966 296.732,4.5487666 287.41277,2.3114065 279.64483,2.5396374 267.85076,2.5396374 Z m 0,48.2190986 h 90.66195 v 63.224784 c 0,27.00524 -1.20882,43.88258 7.91094,61.78073 6.93299,13.60706 17.97394,24.71081 31.58101,31.64377 17.89814,9.11976 34.77548,7.84816 61.78073,7.84816 h 63.28756 v 200.34784 c 0,27.00591 -1.24405,37.13491 -2.63694,39.86867 -2.31194,4.53717 -6.01077,8.23592 -10.54794,10.54794 -2.73379,1.39285 -12.86283,2.63697 -39.8687,2.63697 H 157.5998 c -27.00524,0 -37.13757,-1.24534 -39.86866,-2.63697 -4.53763,-2.31192 -8.23509,-6.00942 -10.54793,-10.54794 -1.39286,-2.73393 -2.63698,-12.86276 -2.63698,-39.86867 V 103.8123 c 0,-27.005237 1.24534,-37.137391 2.63698,-39.868655 2.31264,-4.538759 6.00856,-8.234981 10.54793,-10.547929 2.73126,-1.391632 12.86374,-2.63698 39.86866,-2.63698 z m 138.88106,7.283093 c 1.95875,1.661148 3.166,2.475602 8.9155,8.224873 l 91.85488,91.917668 c 5.71444,5.71291 6.55892,6.89278 8.22485,8.85272 h -55.94166 c -27.00525,0 -37.13805,-1.24564 -39.86866,-2.63698 -4.53939,-2.31288 -8.23506,-5.94577 -10.54794,-10.48515 -1.39134,-2.73061 -2.63699,-12.9262 -2.63697,-39.93144 z"
            id="path2"/>
</svg>
