<?xml version="1.0" encoding="UTF-8" standalone="no"?>
<svg
   width="512"
   height="512"
   viewBox="0 0 512 512"
   version="1.1"
   xmlns="http://www.w3.org/2000/svg">
  <path
     style="color:#000000;fill:currentColor;-inkscape-stroke:none"
     d="m 385.86133,52.166016 c -12.44461,0 -22.62305,10.188575 -22.62305,22.640625 V 372.97656 l -65.15625,-65.20312 c -8.82563,-8.82952 -23.07754,-8.82952 -31.90039,0 -8.82282,8.82981 -8.82282,23.09151 0,31.91992 l 103.8418,103.91797 c 8.82283,8.83121 23.07561,8.83121 31.89844,0 L 505.76367,339.69336 c 8.82284,-8.82841 8.82284,-23.09011 0,-31.91992 -8.82283,-8.82952 -23.07562,-8.82952 -31.89844,0 l -65.38085,65.20312 V 74.806641 c 0,-12.45205 -10.18123,-22.640625 -22.62305,-22.640625 z M 127.24219,63.337891 c -5.76899,0 -11.53767,2.206286 -15.94922,6.621093 L 7.4511719,173.87695 c -8.8231389,8.82953 -8.8231389,23.09429 0,31.92383 8.8231111,8.82951 23.0753261,8.82951 31.8984371,0 L 104.73242,140.5957 v 298.16992 c 0,12.45297 10.18012,22.64063 22.62305,22.64063 12.44292,0 22.62305,-10.18766 22.62305,-22.64063 V 140.5957 l 65.15625,65.20508 c 8.82311,8.82951 23.07728,8.82951 31.90039,0 8.82338,-8.82954 8.82338,-23.09429 0,-31.92383 L 143.19141,69.958984 c -4.4117,-4.414807 -10.18024,-6.621093 -15.94922,-6.621093 z" />
</svg>
