<?xml version="1.0" encoding="UTF-8" standalone="no"?>
<svg
   width="520"
   height="520"
   viewBox="0 0 520 520"
   fill="none"
   version="1.1"
   id="svg9"
   xmlns="http://www.w3.org/2000/svg"
   xmlns:svg="http://www.w3.org/2000/svg">
  <defs
     id="defs13" />
  <mask
     id="path-1-inside-1_646_2497"
     fill="#ffffff">
    <path
       d="m 12.3999,2.67478 c -0.0654,0 -0.1307,-0.0168 -0.1879,-0.0504 -1.5683,-0.8316 -2.92425,-1.1844 -4.54975,-1.1844 -1.61733,0 -3.15298,0.3948 -4.54976,1.1844 -0.19604,0.1092 -0.44109,0.0336 -0.55545,-0.168 -0.10619,-0.2016 -0.03267,-0.462 0.16337,-0.5712 1.51931,-0.8484 3.18565,-1.285204 4.94184,-1.285204 1.73986,0 3.25915,0.3948 4.92555,1.276804 0.2042,0.1092 0.2777,0.3612 0.1715,0.5628 -0.0735,0.1512 -0.2124,0.2352 -0.3594,0.2352 z m -11.688904,4.41 c -0.081683,0 -0.163366,-0.0252 -0.236881,-0.0756 -0.187872,-0.1344 -0.228714,-0.3948 -0.098021,-0.588 0.808666,-1.176 1.837876,-2.1 3.063126,-2.7468 2.56486,-1.3608 5.84853,-1.3692 8.42158,-0.0084 1.2252,0.6468 2.2544,1.56239 3.0631,2.73 0.1307,0.1848 0.0899,0.4536 -0.098,0.588 C 14.638,7.11838 14.3848,7.07638 14.2541,6.88317 13.519,5.82478 12.5878,4.99318 11.485,4.41358 9.14072,3.17878 6.14294,3.17878 3.8068,4.42198 2.6959,5.00998 1.76471,5.84998 1.02956,6.90838 0.964215,7.02598 0.84169,7.08478 0.710996,7.08478 Z M 5.81621,17.2236 c -0.10619,0 -0.21238,-0.042 -0.28589,-0.126 C 4.81967,16.3668 4.43576,15.8964 3.88848,14.88 3.32486,13.8468 3.0308,12.5868 3.0308,11.2344 c 0,-2.49482 2.07476,-4.52762 4.62328,-4.52762 2.54852,0 4.62332,2.0328 4.62332,4.52762 0,0.2352 -0.1797,0.42 -0.4085,0.42 -0.2287,0 -0.4084,-0.1848 -0.4084,-0.42 0,-2.03282 -1.70715,-3.68762 -3.80642,-3.68762 -2.09926,0 -3.80644,1.6548 -3.80644,3.68762 0,1.2096 0.26139,2.3268 0.75965,3.234 0.52278,0.966 0.88218,1.3776 1.51115,2.0328 0.15519,0.168 0.15519,0.4284 0,0.5964 -0.08986,0.084 -0.19604,0.126 -0.30223,0.126 z m 5.85669,-1.554 c -0.972,0 -1.8297,-0.252 -2.53218,-0.7476 -1.21708,-0.8484 -1.94406,-2.226 -1.94406,-3.6876 0,-0.2352 0.1797,-0.42 0.40841,-0.42 0.22872,0 0.40842,0.1848 0.40842,0.42 0,1.1844 0.58812,2.3016 1.58466,2.9904 0.57995,0.4032 1.25795,0.5964 2.07475,0.5964 0.196,0 0.5228,-0.0252 0.8495,-0.084 0.2206,-0.042 0.4329,0.1092 0.4738,0.3444 0.0408,0.2268 -0.1062,0.4452 -0.3349,0.4872 -0.4656,0.0924 -0.874,0.1008 -0.9884,0.1008 z M 10.0311,17.4 C 9.9984,17.4 9.95755,17.3916 9.92488,17.3832 8.62612,17.0136 7.77661,16.518 6.88626,15.6192 5.74269,14.4516 5.11373,12.8976 5.11373,11.2344 c 0,-1.36082 1.12723,-2.46962 2.51585,-2.46962 1.38862,0 2.51582,1.1088 2.51582,2.46962 0,0.8988 0.7597,1.6296 1.699,1.6296 0.9394,0 1.6991,-0.7308 1.6991,-1.6296 0,-3.16682 -2.6548,-5.73722 -5.92209,-5.73722 -2.31981,0 -4.44358,1.3272 -5.39927,3.38519 -0.31857,0.6804 -0.48193,1.47843 -0.48193,2.35203 0,0.6552 0.05718,1.6884 0.54728,3.0324 0.08168,0.2184 -0.02451,0.462 -0.23689,0.5376 -0.21237,0.084 -0.44925,-0.0336 -0.52277,-0.2436 -0.40025,-1.1004 -0.596288,-2.1924 -0.596288,-3.3264 0,-1.008 0.187868,-1.92362 0.555448,-2.72162 1.08639,-2.3436 3.49605,-3.864 6.13442,-3.864 3.71659,0 6.73889,2.9484 6.73889,6.57722 0,1.3608 -1.1272,2.4696 -2.5159,2.4696 -1.3886,0 -2.51581,-1.1088 -2.51581,-2.4696 0,-0.8988 -0.75965,-1.62962 -1.69901,-1.62962 -0.93936,0 -1.69901,0.73082 -1.69901,1.62962 0,1.4364 0.53911,2.7804 1.52747,3.7884 0.776,0.7896 1.51932,1.2264 2.67106,1.554 0.2205,0.0588 0.3431,0.294 0.2859,0.5124 C 10.3741,17.274 10.2026,17.4 10.0311,17.4 Z"
       id="path2" />
  </mask>
  <path
     id="path7"
     mask="url(#path-1-inside-1_646_2497)"
     d="m 12.212,2.62438 0.76,-1.29325 -0.0283,-0.01661 -0.029,-0.01537 z m -9.09951,0 0.72995,1.31044 0.00821,-0.00465 z m -0.55545,-0.168 -1.32715,0.69904 0.0109,0.0207 0.01154,0.02035 z M 2.72041,1.88518 3.45035,3.19559 3.45173,3.19482 Z M 12.5878,1.87678 13.2951,0.554012 13.2895,0.551034 Z m 0.1715,0.5628 -1.3272,-0.69905 -0.0112,0.0214 -0.0106,0.02175 z M 0.474115,7.00918 -0.398628,8.22914 -0.38643,8.23787 -0.37406,8.24635 Z M 0.376094,6.42118 -0.859923,5.57124 -0.866333,5.58071 Z M 3.43922,3.67438 4.13948,5.00089 4.14224,4.99943 Z m 8.42158,-0.0084 -0.7013,1.32597 0.001,5.4e-4 z m 3.0631,2.73 -1.2331,0.85404 0.0042,0.00606 0.0042,0.00601 z M 14.2541,6.88317 15.4965,6.04271 15.4913,6.03506 15.4861,6.02746 Z M 11.485,4.41358 10.786,5.74073 10.7872,5.74134 Z M 3.8068,4.42198 4.50852,5.74772 4.51147,5.74615 Z M 1.02956,6.90838 -0.202411,6.05266 -0.245189,6.11425 -0.281611,6.1798 Z M 5.53032,17.0976 6.65908,16.1097 6.63315,16.0801 6.6057,16.0518 Z M 3.88848,14.88 5.20921,14.1688 5.2053,14.1616 Z m 0.71881,-0.4116 1.31924,-0.714 -0.00449,-0.0081 z m 1.51115,2.0328 1.1018,-1.0179 -0.00975,-0.0105 -0.00995,-0.0104 z m 0,0.5964 1.02438,1.0957 0.04014,-0.0375 0.03728,-0.0404 z M 9.14072,14.922 10.0055,13.6963 9.9985,13.6914 Z M 9.59815,14.2248 10.4544,12.9932 10.451,12.9908 Z m 2.92425,0.5124 0.2657,1.4763 0.0075,-0.0014 0.0074,-0.0014 z m 0.4738,0.3444 -1.4779,0.2566 0.0016,0.0092 z m -0.3349,0.4872 -0.2709,-1.4754 -0.0106,0.002 -0.0105,0.0021 z m -2.73642,1.8144 -0.41056,1.4427 0.01847,0.0053 0.0186,0.0047 z m -3.03862,-1.764 -1.07165,1.0496 0.00599,0.006 z M 2.22214,8.88237 3.58062,9.51842 3.5826,9.51415 Z m 0.06535,5.38443 -1.409279,0.5139 0.004323,0.0115 z M 2.0506,14.8044 1.54757,13.3912 1.52308,13.4 1.4989,13.4095 Z M 1.52783,14.5608 2.94359,14.0652 2.94058,14.0566 2.93748,14.048 Z M 1.48699,8.51278 0.126092,7.88192 0.124574,7.88522 Z M 7.45804,15.0144 6.387,16.0646 6.38821,16.0658 Z m 2.67106,1.554 -0.41039,1.4427 0.01195,0.0034 0.01201,0.0032 z m 0.2859,0.5124 -1.45111,-0.3799 -0.00907,0.0346 -0.0074,0.035 z M 12.3999,1.17478 c 0.1888,0 0.3879,0.0481 0.5721,0.15635 l -1.5199,2.58649 c 0.2985,0.17545 0.6283,0.25716 0.9478,0.25716 z m 0.5148,0.12437 C 11.1502,0.3635 9.55464,-0.0600244 7.66225,-0.0600244 V 2.93998 c 1.35861,0 2.47495,0.28207 3.84705,1.00962 z M 7.66225,-0.0600244 c -1.86904,0 -3.65995,0.4583104 -5.28793,1.3786044 L 3.85065,3.93017 C 5.01625,3.27126 6.29663,2.93998 7.66225,2.93998 Z M 2.38255,1.31396 C 2.96008,0.992257 3.60069,1.25606 3.86175,1.71628 L 1.25233,3.19647 c 0.48978,0.86342 1.62048,1.27842 2.5901,0.73832 z M 3.88419,1.75733 C 4.14278,2.24826 3.99372,2.89292 3.45035,3.19559 L 1.99047,0.57476 C 1.05502,1.09583 0.758927,2.2613 1.22989,3.15542 Z M 3.45173,3.19482 C 4.74801,2.47096 6.16266,2.09998 7.66225,2.09998 v -3.000004 c -2.01279,0 -3.93082,0.502611 -5.67316,1.475554 z M 7.66225,2.09998 c 1.47432,0 2.75435,0.32476 4.22375,1.10254 L 13.2895,0.551034 C 11.4262,-0.435193 9.66765,-0.900024 7.66225,-0.900024 Z M 11.8804,3.19953 C 11.3441,2.91274 11.161,2.25533 11.4321,1.74053 l 2.6543,1.39809 C 14.57,2.22062 14.2398,1.05921 13.2951,0.554024 Z M 11.4103,1.78368 c 0.1665,-0.34241 0.5376,-0.6089 0.9896,-0.6089 v 3 c 0.746,0 1.3949,-0.43449 1.7084,-1.07931 z M 0.710996,5.58478 c 0.233452,0 0.445484,0.07355 0.611294,0.18722 l -1.69635,2.47435 c 0.3128392,0.21447 0.688238,0.33843 1.085056,0.33843 z M 1.34686,5.78921 C 1.85476,6.15255 1.9193,6.817 1.61852,7.26164 L -0.866333,5.58071 C -1.4285,6.41175 -1.28227,7.597 -0.398628,8.22914 Z M 1.61208,7.27109 C 2.28813,6.28793 3.13609,5.53057 4.13948,5.00089 L 2.73897,2.34786 C 1.29185,3.11178 0.0813854,4.20242 -0.859887,5.57126 Z M 4.14224,4.99943 C 6.26961,3.87074 9.02738,3.86433 11.1595,4.99195 L 12.562,2.34 C 9.54813,0.74602 5.73855,0.756413 2.73621,2.34932 Z M 11.1605,4.99249 c 1.0081,0.53213 1.856,1.28393 2.5303,2.25753 L 16.157,5.54193 c -0.943,-1.3616 -2.1535,-2.441 -3.596,-3.20247 z m 2.5387,2.2696 C 13.364,6.78804 13.455,6.12034 13.9531,5.76401 l 1.7455,2.43993 c 0.8739,-0.62513 1.0466,-1.83043 0.45,-2.67408 z m 0.2539,-1.49808 c 0.4841,-0.3463 1.1915,-0.24156 1.5434,0.2787 l -2.4848,1.68093 c 0.6133,0.90666 1.8271,1.0954 2.6869,0.4803 z m 1.533,0.26345 C 14.6189,4.77901 13.5074,3.78197 12.1829,3.08581 l -1.3957,2.65553 c 0.8809,0.46304 1.6318,1.1292 2.2349,1.99755 z M 12.1841,3.08642 C 9.40291,1.62152 5.87948,1.61981 3.10213,3.0978 L 4.51147,5.74615 C 6.4064,4.73774 8.87853,4.73603 10.786,5.74073 Z M 3.10508,3.09623 C 1.77186,3.80191 0.662426,4.80755 -0.202411,6.05266 L 2.26153,7.76409 C 2.867,6.8924 3.61995,6.21804 4.50852,5.74772 Z M -0.281611,6.1798 C -0.0368197,5.73926 0.397729,5.58478 0.710996,5.58478 v 3 c 0.574654,0 1.254254,-0.27209 1.629734,-0.94783 z m 6.097821,9.5438 c 0.27886,0 0.60174,0.1106 0.84287,0.3861 l -2.25753,1.9757 c 0.38817,0.4436 0.92342,0.6382 1.41466,0.6382 z M 6.6057,16.0518 C 5.97256,15.4008 5.6786,15.0406 5.20919,14.1688 l -2.64142,1.4223 c 0.62515,1.161 1.09901,1.7417 1.88716,2.5522 z M 5.2053,14.1616 C 4.78004,13.3821 4.5308,12.3766 4.5308,11.2344 h -3 c 0,1.5625 0.33889,3.0771 1.04086,4.3639 z M 4.5308,11.2344 c 0,-1.63719 1.37368,-3.02762 3.12328,-3.02762 v -3 c -3.34743,0 -6.12328,2.67516 -6.12328,6.02762 z M 7.65408,8.20678 c 1.74961,0 3.12332,1.39043 3.12332,3.02762 h 3 c 0,-3.35246 -2.7759,-6.02762 -6.12332,-6.02762 z m 3.12332,3.02762 c 0,-0.5534 0.4526,-1.08 1.0915,-1.08 v 3 c 1.0965,0 1.9085,-0.8962 1.9085,-1.92 z m 1.0915,-1.08 c 0.639,0 1.0916,0.5266 1.0916,1.08 H 9.96053 c 0,1.0238 0.81197,1.92 1.90837,1.92 z m 1.0916,1.08 c 0,-2.90551 -2.4237,-5.18762 -5.30642,-5.18762 v 3 c 1.3158,0 2.30645,1.02752 2.30645,2.18762 z M 7.65408,6.04678 c -2.88273,0 -5.30644,2.28211 -5.30644,5.18762 h 3 c 0,-1.1601 0.99065,-2.18762 2.30644,-2.18762 z M 2.34764,11.2344 c 0,1.4177 0.30541,2.7918 0.94491,3.9561 L 5.92204,13.7463 C 5.565,13.0962 5.34764,12.2358 5.34764,11.2344 Z m 0.94044,3.9479 c 0.60683,1.1213 1.06038,1.6411 1.74825,2.3576 L 7.20054,15.4624 C 6.63049,14.8686 6.36523,14.5651 5.9265,13.7545 Z m 1.72855,2.3367 c -0.37573,-0.4067 -0.37573,-1.0326 0,-1.4393 l 2.20361,2.0357 c 0.68613,-0.7427 0.68613,-1.8894 0,-2.6321 z m 0.07743,-1.5172 c 0.16501,-0.1542 0.41762,-0.2782 0.72215,-0.2782 v 3 c 0.5169,0 0.98189,-0.208 1.32661,-0.5303 z m 6.57884,-1.8322 c -0.7067,0 -1.2519,-0.1801 -1.6675,-0.4733 l -1.72939,2.4513 c 0.98942,0.6981 2.15949,1.022 3.39689,1.022 z M 9.9985,13.6914 C 9.1759,13.118 8.69666,12.1959 8.69666,11.2344 h -3 c 0,1.9617 0.97472,3.7947 2.58628,4.9181 z m -1.30184,-2.457 c 0,0.5534 -0.45261,1.08 -1.09159,1.08 V 9.31437 c -1.0964,0 -1.90841,0.89623 -1.90841,1.92003 z m -1.09159,1.08 c -0.63898,0 -1.09158,-0.5266 -1.09158,-1.08 h 3 c 0,-1.0238 -0.81201,-1.92003 -1.90842,-1.92003 z m -1.09158,-1.08 c 0,1.685 0.83661,3.26 2.23177,4.2243 L 10.451,12.9908 C 9.85312,12.5776 9.51349,11.9182 9.51349,11.2344 Z m 2.22841,4.222 c 0.87167,0.606 1.8612,0.8648 2.931,0.8648 v -3 c -0.5639,0 -0.9303,-0.1276 -1.2185,-0.328 z m 2.931,0.8648 c 0.2921,0 0.7079,-0.0344 1.1152,-0.1077 l -0.5314,-2.9526 c -0.2462,0.0443 -0.4838,0.0603 -0.5838,0.0603 z m 1.1301,-0.1105 c -0.6586,0.1254 -1.1921,-0.3394 -1.2847,-0.8725 l 2.9558,-0.5133 c -0.1743,-1.0035 -1.1326,-1.7707 -2.2323,-1.5612 z m -1.2831,-0.8633 c -0.1024,-0.569 0.269,-1.1435 0.8705,-1.254 l 0.5418,2.9507 c 1.0589,-0.1944 1.7244,-1.2057 1.5402,-2.2284 z m 0.8494,-1.2499 c -0.3341,0.0663 -0.636,0.0721 -0.6964,0.0721 v 3 c 0.1683,0 0.6833,-0.011 1.2804,-0.1295 z M 10.0311,15.9 c 0.0541,0 0.0979,0.0033 0.1276,0.0064 0.0307,0.0031 0.0554,0.0069 0.0727,0.0099 0.0333,0.0057 0.0566,0.0114 0.067,0.0141 L 9.55139,18.8359 C 9.60545,18.8498 9.79926,18.9 10.0311,18.9 Z m 0.3043,0.0405 C 9.27009,15.6373 8.65042,15.2687 7.95192,14.5635 L 5.8206,16.6748 c 1.0822,1.0925 2.16154,1.7151 3.69372,2.1511 z M 7.95789,14.5696 C 7.09377,13.6873 6.61373,12.5122 6.61373,11.2344 h -3 c 0,2.0486 0.77789,3.9814 2.2009,5.4343 z M 6.61373,11.2344 c 0,-0.5072 0.43021,-0.9696 1.01585,-0.9696 V 7.26478 c -2.1916,0 -4.01585,1.75515 -4.01585,3.96962 z m 1.01585,-0.9696 c 0.58564,0 1.01585,0.4624 1.01585,0.9696 h 2.99997 c 0,-2.21447 -1.82422,-3.96962 -4.01582,-3.96962 z m 1.01585,0.9696 c 0,1.7843 1.48947,3.1296 3.19897,3.1296 v -3 c -0.0755,0 -0.1299,-0.0282 -0.1629,-0.0598 -0.0321,-0.0309 -0.0361,-0.055 -0.0361,-0.0698 z m 3.19897,3.1296 c 1.7096,0 3.1991,-1.3453 3.1991,-3.1296 h -3 c 0,0.0148 -0.004,0.0389 -0.0361,0.0698 -0.033,0.0316 -0.0874,0.0598 -0.163,0.0598 z m 3.1991,-3.1296 c 0,-4.03997 -3.3718,-7.23722 -7.42209,-7.23722 v 3 c 2.48439,0 4.42209,1.94355 4.42209,4.23722 z M 7.62141,3.99718 c -2.8835,0 -5.54979,1.64792 -6.759735,4.25342 L 3.5826,9.51415 C 4.28405,8.00365 5.8653,6.99718 7.62141,6.99718 Z M 0.863665,8.24633 C 0.437778,9.15595 0.240207,10.1769 0.240207,11.2344 H 3.24021 c 0,-0.6897 0.12916,-1.2648 0.3404,-1.71598 z M 0.240207,11.2344 c 0,0.7709 0.07041,1.9896 0.638051,3.5463 L 3.69671,13.7529 c -0.41256,-1.1314 -0.4565,-1.979 -0.4565,-2.5185 z m 0.642327,3.5578 C 0.692597,14.2844 0.913153,13.6171 1.54757,13.3912 l 1.00607,2.8263 c 1.05917,-0.377 1.4921,-1.5315 1.1388,-2.4762 z M 1.4989,13.4095 c 0.62013,-0.2453 1.25126,0.1031 1.44469,0.6557 L 0.112074,15.0564 C 0.452532,16.0289 1.55743,16.6125 2.6023,16.1992 Z M 2.93748,14.048 C 2.5949,13.1062 2.43154,12.1874 2.43154,11.2344 h -2.999998 c 0,1.3149 0.228726,2.5802 0.686641,3.8391 z M 2.43154,11.2344 c 0,-0.8215 0.15273,-1.51848 0.41786,-2.09407 L 0.124574,7.88522 C -0.345447,8.90563 -0.568458,10.0398 -0.568458,11.2344 Z M 2.84788,9.14363 C 3.68259,7.34297 5.55281,6.14878 7.62141,6.14878 v -3 c -3.20815,0 -6.15724,1.8466 -7.495314,4.73315 z M 7.62141,6.14878 c 2.92289,0 5.23889,2.31115 5.23889,5.07722 h 3 c 0,-4.49158 -3.7286,-8.07722 -8.23889,-8.07722 z M 12.8603,11.226 c 0,0.5071 -0.4302,0.9696 -1.0159,0.9696 v 3 c 2.1916,0 4.0159,-1.7552 4.0159,-3.9696 z m -1.0159,0.9696 c -0.5856,0 -1.0158,-0.4625 -1.0158,-0.9696 H 7.82859 c 0,2.2144 1.82425,3.9696 4.01581,3.9696 z M 10.8286,11.226 c 0,-1.78433 -1.48949,-3.12962 -3.19902,-3.12962 v 3.00002 c 0.07555,0 0.12995,0.0281 0.16295,0.0598 0.03211,0.0308 0.03606,0.055 0.03606,0.0698 z M 7.62958,8.09638 c -1.70953,0 -3.19901,1.34529 -3.19901,3.12962 h 3 c 0,-0.0148 0.00395,-0.039 0.03606,-0.0698 0.033,-0.0317 0.08739,-0.0598 0.16295,-0.0598 z M 4.43057,11.226 c 0,1.8182 0.68562,3.5425 1.95644,4.8386 L 8.52908,13.9642 C 7.82316,13.2443 7.43057,12.2805 7.43057,11.226 Z m 1.95764,4.8398 c 0.96923,0.9862 1.94435,1.5511 3.3305,1.9453 L 10.5395,15.1256 C 9.62215,14.8647 9.11063,14.5559 8.52788,13.963 Z m 3.35446,1.9519 C 9.09243,17.8444 8.83154,17.2064 8.96389,16.7009 l 2.90221,0.7598 C 12.1128,16.5184 11.6068,15.41 10.5155,15.119 Z M 8.94742,16.7705 C 9.05614,16.2562 9.50813,15.9 10.0311,15.9 v 3 c 0.866,0 1.661,-0.6083 1.8514,-1.509 z" />
  <path
     id="path358"
     style="color:#000000;fill:#000000;stroke-width:0.591831;-inkscape-stroke:none"
     d="m 251.70703,6.0253906 c -4.5558,0.05673 -8.63579,0.1903662 -11.74805,0.4082032 -34.16524,2.3913119 -63.89961,9.1670442 -95.125,21.6777342 -10.55834,4.230274 -32.11659,14.711811 -35.90625,17.457031 -4.23425,3.067282 -6.19925,8.858372 -4.75585,14.013672 0.9303,3.322707 4.60964,7.291596 7.6621,8.263672 4.79112,1.52576 5.92834,1.183932 20.67579,-6.224609 41.56454,-20.880397 81.27007,-30.28595 127.83789,-30.28125 46.87691,0.005 84.70733,9.285927 130.23242,31.949218 10.59277,5.2733 11.05292,5.440101 14.12109,5.132813 4.03758,-0.404398 7.2115,-2.468772 9.31641,-6.060547 3.1757,-5.418945 2.34865,-11.811559 -2.04102,-15.777344 C 409.43874,44.291221 400.89573,39.819082 387.34961,33.693359 355.61726,19.343555 325.11751,10.886202 292.33594,7.3457031 283.33029,6.3730774 265.37445,5.8552022 251.70703,6.0253906 Z m 1.56836,62.1933594 c -22.15299,0.508872 -39.27836,2.728738 -60.16992,7.800781 -41.21496,10.006133 -78.50037,29.136039 -109.685548,56.275389 -7.069929,6.15271 -20.992202,20.18378 -26.964844,27.17578 -5.890305,6.89558 -17.132917,21.89731 -18.40625,24.56055 -1.330195,2.78218 -1.6806,7.0703 -0.796875,9.74805 0.971431,2.94355 3.910287,6.18031 6.806641,7.49609 3.142506,1.42759 7.036947,1.38459 10.123047,-0.10937 1.981341,-0.95915 3.589547,-2.71624 7.714843,-8.4336 36.393727,-50.43897 89.633576,-83.98497 150.984376,-95.134764 26.5654,-4.827964 55.91433,-5.423577 83.00586,-1.685547 37.3599,5.154841 74.35029,19.398951 104.16211,40.111331 20.30463,14.10711 39.82182,33.20106 55.42578,54.22265 5.10626,6.87916 6.66185,8.56085 9.16406,9.91211 1.65766,0.89516 3.85037,1.627 4.8711,1.625 7.29751,-0.013 12.76141,-5.58284 12.79101,-13.03906 0.0162,-4.0911 -0.73892,-5.59043 -7.16406,-14.23047 C 422.96607,104.35829 343.22216,66.152583 253.27539,68.21875 Z m 5.52734,60.40625 c -43.06405,-0.0135 -85.3256,13.36148 -121.06835,38.92773 -39.25606,28.07927 -67.037718,69.24895 -77.01563,114.13086 -9.334472,41.98766 -4.920581,96.74683 11.515625,142.86524 2.665297,7.47862 4.249013,9.81975 7.804687,11.54101 5.84476,2.82941 12.952608,0.50868 15.9375,-5.20507 1.006831,-1.92728 1.646485,-4.08039 1.646485,-5.53516 0,-1.31101 -1.616655,-7.33124 -3.597656,-13.39649 -6.011987,-18.40702 -9.929889,-35.67264 -12.103516,-53.33203 -1.501533,-12.19894 -1.82432,-38.80013 -0.611328,-50.30468 2.195337,-20.8216 7.276643,-38.79831 15.730469,-55.65039 27.649114,-55.11652 82.303734,-91.73619 145.777344,-97.67383 10.55749,-0.9876 32.11401,-0.41092 42.13867,1.1289 41.29481,6.34307 75.88256,23.89064 104.16602,52.84375 13.62306,13.94566 22.81973,26.8094 31.25195,43.71875 11.8472,23.75757 17.64639,47.4545 17.74219,72.5 0.0464,12.13537 -0.74195,16.21576 -4.64649,24.04883 -7.11688,14.27782 -19.64589,23.82945 -36.00195,27.44727 -6.30656,1.39494 -18.8574,0.96991 -25.12891,-0.84961 -8.66706,-2.51452 -17.01542,-7.55324 -23.24804,-14.0332 -9.17794,-9.54215 -13.04769,-19.11385 -13.84375,-34.2461 -0.6828,-12.97768 -2.89906,-22.0251 -7.82422,-31.93359 -6.7864,-13.65292 -16.9785,-24.37826 -30.57031,-32.16992 -16.87155,-9.67176 -37.58759,-12.42982 -56.74219,-7.55665 -22.15917,5.63759 -39.87302,19.92741 -49.94336,40.29297 -5.22838,10.5735 -7.32345,20.47352 -7.31445,34.55079 0.0298,43.44739 15.7807,86.35579 44.06054,120.03124 4.9403,5.8829 17.21122,18.24068 23.69727,23.86329 18.22034,15.79479 40.48608,28.07286 66.58203,36.71875 6.29938,2.08707 7.33042,2.25882 13.85156,2.29492 l 7.04492,0.0391 2.15039,-2.25976 c 3.83844,-4.03508 4.60957,-9.65806 2.03321,-14.82813 -2.065,-4.14386 -4.0342,-5.3023 -14.72266,-8.66016 -23.05867,-7.24405 -40.04823,-16.02124 -56.51953,-29.19921 -7.68421,-6.14781 -20.41089,-18.64754 -26.48047,-26.00977 -23.56096,-28.57883 -36.72784,-64.80582 -36.89648,-101.51172 -0.0594,-12.9382 2.00294,-20.8693 7.63672,-29.35742 9.13427,-13.76213 23.92526,-22.09226 40.76367,-22.96094 15.9999,-0.82543 30.0629,4.65802 40.7539,15.89063 9.3501,9.82372 12.91576,18.78427 13.85157,34.81054 0.80211,13.73761 2.90387,22.03197 8.16211,32.21289 10.57518,20.47558 29.8641,34.85325 53.41211,39.81446 6.93359,1.46077 22.00473,1.46783 28.99804,0.0137 34.18964,-7.10927 58.5979,-33.88907 61.54688,-67.5293 0.59219,-6.75541 0.0153,-21.50001 -1.20703,-30.82226 C 450.54854,219.21147 386.55692,151.01604 301.92188,133.14453 287.6004,130.12041 273.15742,128.62949 258.80273,128.625 Z m -2.56835,62.68164 c -22.42822,0.60504 -39.64868,4.83717 -59.47852,14.61719 -15.39833,7.59441 -27.61832,16.52999 -39.20898,28.66992 -19.78388,20.72136 -31.93139,45.24509 -36.66016,74.01758 -1.46073,8.88809 -1.44746,35.08812 0.0234,47.93945 2.65752,23.21877 7.86635,44.43389 15.49218,63.10547 7.20194,17.63373 21.95823,43.06829 33.87696,58.38867 10.21463,13.12989 26.54173,30.35978 29.73047,31.37305 2.79702,0.88878 7.10165,0.44624 9.98632,-1.02539 5.66152,-2.8883 8.1597,-10.42149 5.44141,-16.4082 -0.61469,-1.35379 -4.31478,-5.88071 -8.22461,-10.06055 -17.03306,-18.20935 -26.08179,-30.58238 -37.96094,-51.90821 -16.14663,-28.98695 -23.85832,-58.67817 -24.68945,-95.0664 -0.44082,-19.30054 1.15493,-30.05189 6.62891,-44.6836 12.97431,-34.67972 43.34339,-61.32164 80.18554,-70.33984 23.45937,-5.74235 49.46218,-4.02208 71.61133,4.73633 41.75164,16.50982 69.86544,54.9552 71.99024,98.44922 0.42576,8.71496 0.97058,10.76869 3.64843,13.73633 2.66608,2.9546 5.05036,4.01953 9.00391,4.01953 5.24078,0 9.91384,-3.4187 11.5957,-8.48242 0.8037,-2.41978 0.90582,-4.23239 0.57032,-10.10547 -1.13211,-19.81556 -5.79369,-37.45193 -14.38086,-54.40039 -13.87286,-27.38085 -35.3604,-48.54854 -63.19141,-62.25196 -20.96826,-10.32433 -42.32216,-14.95881 -65.99023,-14.32031 z m 1.33398,124.4043 c -2.99898,0.15445 -5.90892,1.45861 -8.09375,3.87695 -3.0674,3.39527 -3.42772,4.72565 -3.35352,12.40039 0.47028,48.64744 30.94616,96.1967 75.51172,117.81836 13.74491,6.66857 27.51865,10.50905 44.38672,12.375 8.06547,0.89222 29.1209,0.25942 38.39258,-1.1543 10.81529,-1.64909 14.33224,-3.56 16.61523,-9.02539 2.94027,-7.03872 -2.03061,-16.26958 -9.33789,-17.33789 -1.35653,-0.19833 -4.9503,0.0468 -7.98633,0.54297 -10.73213,1.75389 -22.23295,2.32973 -31.79492,1.59375 -20.93861,-1.61165 -36.83937,-6.8685 -52.34765,-17.30664 -20.42041,-13.74433 -35.53247,-33.56818 -43.23633,-56.7168 -3.11989,-9.37469 -4.59462,-17.03603 -5.35547,-27.82812 -0.76275,-10.81857 -1.53801,-13.45495 -4.77148,-16.22266 -2.54094,-2.17495 -5.62993,-3.17007 -8.62891,-3.01562 z" />
</svg>
