<?xml version="1.0" encoding="UTF-8" standalone="no"?>
<svg
   width="512"
   height="512"
   viewBox="0 0 512 512"
   fill="none"
   version="1.1"
   xmlns="http://www.w3.org/2000/svg"
   xmlns:svg="http://www.w3.org/2000/svg">
  <path
     d="m 105.45897,0.05066172 h 301.07607 c 58.19737,0 105.37538,47.17654428 105.37538,105.37157828 v 301.06404 c 0,58.19504 -47.17801,105.37116 -105.37538,105.37116 H 105.45897 C 47.261612,511.85744 0.08318597,464.68132 0.08318597,406.48628 V 105.42224 C 0.08318597,47.227206 47.261612,0.05066172 105.45897,0.05066172 Z m 0,45.15989128 c -33.255634,0 -60.214089,26.957378 -60.214089,60.211687 v 301.06404 c 0,33.25431 26.958455,60.21169 60.214089,60.21169 h 301.07607 c 33.25565,0 60.2141,-26.95738 60.2141,-60.21169 V 105.42224 c 0,-33.254309 -26.95845,-60.211687 -60.2141,-60.211687 z"
     fill="currentColor"
  />
</svg>
