<?xml version="1.0" encoding="UTF-8" standalone="no"?>
<svg
   width="512"
   height="512"
   viewBox="0 0 512 512"
   fill="none"
   version="1.1"
   id="svg4"
   xmlns="http://www.w3.org/2000/svg">
  <path
     fill="currentColor"
     d="m 51.126636,3.5351563 c -27.837844,0 -50.35136657,22.4139527 -50.35136637,50.1286797 V 462.12654 c 0,27.71473 22.51352237,50.12868 50.35136637,50.12868 H 461.40385 c 27.83785,0 50.35137,-22.41395 50.35137,-50.12868 V 53.663836 c 0,-27.714727 -22.51352,-50.1286799 -50.35137,-50.1286797 z m 0,6.4769727 H 461.40385 c 24.34703,0 43.84564,19.412365 43.84564,43.651707 V 462.12654 c 0,24.23935 -19.49861,43.65172 -43.84564,43.65172 H 51.126636 c -24.34702,0 -43.8456211,-19.41237 -43.8456211,-43.65172 V 53.663836 c 0,-8.519314 2.4086346,-16.442357 6.5898511,-23.135889 7.715272,-12.351057 21.465908,-20.515818 37.25577,-20.515818 z"
   />
</svg>
