<?xml version="1.0" encoding="UTF-8" standalone="no"?>
<svg
        width="512"
        height="512"
        viewBox="0 0 512 512"
        version="1.1"
        xmlns="http://www.w3.org/2000/svg"
>
    <path
            fill="currentColor"
            d="m 249.07422,0 c -49.8191,25.577209 -87.69845,69.173535 -110.35156,124.72852 33.72215,17.21201 71.36159,26.97455 110.35156,28.11718 z m 20.86719,2.8671875 V 152.62305 C 306.88499,150.73976 342.56556,140.95126 374.71094,124.2793 352.86382,70.96109 316.96885,28.698804 269.94141,2.8671875 Z m -65.87305,0.875 C 153.14876,14.406875 107.72942,40.197454 72.726562,76.175781 87.073178,90.883795 103.08676,103.68433 120.37305,114.39453 139.24145,69.195238 167.66357,31.352736 204.06836,3.7421875 Z m 105.47852,0 C 345.7937,31.232782 374.13133,68.86733 393,113.80859 410.10762,103.0499 425.97983,90.220873 440.21875,75.492188 405.30674,39.870917 360.14235,14.339062 309.54688,3.7421875 Z m 144.6914,87.2480465 c -16.15055,16.533626 -34.20884,30.821696 -53.6875,42.664066 11.86022,34.58276 18.45969,72.90652 19.19727,113.83593 h 93.86328 C 511.84774,188.09566 489.82916,133.70365 454.23828,90.990234 Z M 58.757812,91.71875 C 23.525477,134.32012 1.7554926,188.43461 0,247.49023 H 93.863281 C 94.597557,206.79052 101.13303,168.66997 112.86719,134.23828 93.208603,122.45844 75.011202,108.21333 58.757812,91.71875 Z m 323.216798,52.26758 c -34.47044,17.46238 -72.59865,27.66295 -112.0332,29.52148 v 73.98242 h 128.9375 c -0.70698,-37.16665 -6.51668,-71.98712 -16.9043,-103.5039 z m -250.48633,0.45508 c -10.2929,31.39682 -16.04881,66.06211 -16.75195,103.04882 h 134.33984 l -0.002,-73.76367 C 207.60884,172.60102 167.53449,162.42675 131.48828,144.44141 Z M 0.20507812,268.35742 C 3.0861176,325.31051 24.601396,377.42885 58.757812,418.72656 75.011202,402.23403 93.209878,387.98814 112.86719,376.20703 101.65471,343.30362 95.185611,307.03144 93.992188,268.35742 Z m 114.66797188,0 c 1.13856,34.9656 6.82435,67.78475 16.61523,97.64844 36.04749,-17.98559 76.12056,-28.16218 117.58594,-29.28516 v -68.36328 z m 155.06836,0 v 68.58399 c 39.43455,1.85805 77.56276,12.05518 112.0332,29.51757 9.88228,-29.98363 15.62223,-62.95983 16.76562,-98.10156 z m 149.67968,0 c -1.19955,38.9037 -7.7333,75.37901 -19.07031,108.43555 19.47866,11.84235 37.53695,26.13071 53.6875,42.66406 34.50874,-41.4151 56.27057,-93.80962 59.16992,-151.09961 z m -170.54687,89.24414 c -38.98997,1.14341 -76.62941,10.90493 -110.35156,28.11719 22.65311,55.55446 60.53246,99.15005 110.35156,124.72852 z m 20.86719,0.22071 v 149.75585 c 47.02744,-25.83114 82.92498,-68.09339 104.76953,-121.4121 -32.14538,-16.67119 -67.82851,-26.4602 -104.76953,-28.34375 z m -149.56836,38.23046 c -17.28629,10.70918 -33.299871,23.50829 -47.646488,38.2168 35.002858,35.97883 80.422198,61.77035 131.341798,72.43359 C 167.66357,479.09305 139.23992,441.2528 120.37305,396.05273 Z M 393,396.63672 c -18.86867,44.94229 -47.20571,82.5757 -83.45508,110.06836 50.59803,-10.59942 95.76182,-36.12847 130.67383,-71.75 C 425.97729,420.2287 410.10506,407.39695 393,396.63672 Z"/>
</svg>
