<?xml version="1.0" encoding="UTF-8" standalone="no"?>
<svg
   width="512"
   height="512"
   viewBox="0 0 512 512"
   fill="none"
   version="1.1"
   xmlns="http://www.w3.org/2000/svg"
   xmlns:svg="http://www.w3.org/2000/svg">
  <path
     d="M 492.6717,193.92871 331.14885,32.385746 C 311.1587,12.45347 284.08054,1.2605594 255.85053,1.2605594 c -28.22969,0 -55.30784,11.1929106 -75.29864,31.1251866 L 19.029999,193.92871 c -5.953509,5.91541 -10.6736296,12.9539 -13.8867737,20.70694 -3.2131187,7.75305 -4.85532953,16.067 -4.83142642,24.45953 v 209.0521 c 0,16.9422 6.73068622,33.19128 18.71139612,45.17286 11.980711,11.98156 28.230099,18.71182 45.173277,18.71182 H 447.50523 c 16.94221,0 33.19128,-6.73026 45.17285,-18.71182 11.98158,-11.98158 18.71184,-28.23066 18.71184,-45.17286 v -209.0521 c 0.0223,-8.39253 -1.61948,-16.70648 -4.83289,-24.45953 -3.21339,-7.75304 -7.93128,-14.79153 -13.88533,-20.70694 z M 319.73522,469.44323 H 191.96585 v -83.77517 c 0,-16.94223 6.73056,-33.1913 18.7115,-45.17287 11.98061,-11.98158 28.23,-18.71183 45.17318,-18.71183 16.94317,0 33.19256,6.73025 45.17349,18.71183 11.98062,11.98157 18.7112,28.23064 18.7112,45.17287 z m 149.06277,-21.29595 c 0,5.6474 -2.24235,11.06482 -6.23515,15.05761 -3.99278,3.9928 -9.41021,6.23834 -15.05761,6.23834 h -85.18065 v -83.77517 c 0,-28.24023 -11.21815,-55.32096 -31.18531,-75.28875 -19.9678,-19.9678 -47.0498,-31.18563 -75.28874,-31.18563 -28.23863,0 -55.32095,11.21783 -75.28874,31.18563 -19.9678,19.96779 -31.18563,47.04852 -31.18563,75.28875 v 83.77517 H 64.196472 c -5.647725,0 -11.064189,-2.24554 -15.05762,-6.23834 C 45.1451,459.2121 42.90147,453.79468 42.90147,448.14728 v -209.0521 c 0.0198,-5.64357 2.261517,-11.05237 6.239617,-15.05538 L 210.66265,62.560719 c 12.00394,-11.948033 28.25142,-18.655605 45.18788,-18.655605 16.93647,0 33.18394,6.707572 45.18787,18.655605 L 462.55965,224.10367 c 3.96405,3.98738 6.2032,9.3703 6.23834,14.99151 z"
     fill="currentColor"
     />
</svg>
