<?xml version="1.0" encoding="UTF-8" standalone="no"?>
<svg
   aria-hidden="true"
   focusable="false"
   role="img"
   viewBox="0 0 512 512"
   version="1.1"
   width="512"
   height="512"
   xmlns="http://www.w3.org/2000/svg">
  <path
     fill="currentColor"
     d="M 249.16675,157.32732 85.314764,292.27836 v 145.65115 a 14.219405,14.219405 0 0 0 14.219405,14.2194 l 99.589161,-0.25772 a 14.219405,14.219405 0 0 0 14.14831,-14.21941 v -85.05871 a 14.219405,14.219405 0 0 1 14.2194,-14.2194 h 56.87762 a 14.219405,14.219405 0 0 1 14.21941,14.2194 v 84.9965 a 14.219405,14.219405 0 0 0 14.2194,14.26384 l 99.55361,0.2755 a 14.219405,14.219405 0 0 0 14.21941,-14.2194 V 292.1806 L 262.76405,157.32732 a 10.833409,10.833409 0 0 0 -13.5973,0 z m 258.81984,91.72405 -74.2964,-61.2412 V 64.714554 A 10.664554,10.664554 0 0 0 423.02564,54.05 H 373.25772 A 10.664554,10.664554 0 0 0 362.59317,64.714554 V 129.24399 L 283.02671,63.781405 a 42.658216,42.658216 0 0 0 -54.21149,0 L 3.8553459,249.05137 a 10.664554,10.664554 0 0 0 -1.4219405,15.01925 l 22.6621776,27.55009 a 10.664554,10.664554 0 0 0 15.028133,1.44861 L 249.16675,120.89009 a 10.833409,10.833409 0 0 1 13.5973,0 l 209.05192,172.17923 a 10.664554,10.664554 0 0 0 15.01925,-1.42195 l 22.66218,-27.55009 a 10.664554,10.664554 0 0 0 -1.51081,-15.04591 z"
     />
</svg>
