<?xml version="1.0" encoding="UTF-8" standalone="no"?>
<svg
   width="512"
   height="512"
   viewBox="0 0 512 512"
   version="1.1"
   id="svg92"
   xmlns="http://www.w3.org/2000/svg"
   xmlns:svg="http://www.w3.org/2000/svg">
  <path
     id="path185"
     style="stroke-width:25.6"
     d="M 256,0 C 114.61504,0 0,114.61504 0,256 0,397.38368 114.61504,512 256,512 397.38368,512 512,397.38368 512,256 512,114.61504 397.38368,0 256,0 Z m 0,32.681641 C 379.33568,32.681641 479.31836,132.66432 479.31836,256 479.31836,379.33568 379.33568,479.31836 256,479.31836 132.66432,479.31836 32.681641,379.33568 32.681641,256 32.681641,132.66432 132.66432,32.681641 256,32.681641 Z m 0,114.382809 c -12.03277,0 -21.78711,9.7546 -21.78711,21.78711 0,12.03277 9.75434,21.78711 21.78711,21.78711 12.032,0 21.78906,-9.75434 21.78906,-21.78711 0,-12.03251 -9.75706,-21.78711 -21.78906,-21.78711 z m -21.78711,70.8086 c -9.02476,0 -16.33984,7.31508 -16.33984,16.33984 0,9.02452 7.31508,16.33984 16.33984,16.33984 h 5.44727 v 76.25782 h -5.44727 c -9.02476,0 -16.33984,7.31328 -16.33984,16.33984 0,9.024 7.31508,16.33984 16.33984,16.33984 h 43.57617 c 9.024,0 16.33985,-7.31584 16.33985,-16.33984 0,-9.02656 -7.31585,-16.33984 -16.33985,-16.33984 h -5.44922 v -92.59766 c 0,-9.02476 -7.31584,-16.33984 -16.33984,-16.33984 z" />
</svg>