<?xml version="1.0" encoding="UTF-8" standalone="no"?>
<svg
   width="520"
   height="520"
   viewBox="0 0 520 520"
   fill="none"
   version="1.1"
   xmlns="http://www.w3.org/2000/svg"
   xmlns:svg="http://www.w3.org/2000/svg">
  <path
     fill="currentColor"
     d="M 343.70703,0.76757812 C 307.94933,-0.21360181 272.57075,9.3936761 242.0957,28.554688 c -34.82903,21.898049 -61.18629,54.975423 -74.75195,93.812502 -13.56565,38.8375 -13.53501,81.13111 0.0859,119.94922 l -24.42774,24.42382 c -2.76592,2.64921 -4.95078,5.84408 -6.41601,9.38282 -1.46482,3.53833 -2.17747,7.3428 -2.09375,11.17187 v 28.90039 h -24.42578 c -8.79427,0 -17.229213,3.4933 -23.447269,9.71094 -6.218469,6.21765 -9.710938,14.65032 -9.710938,23.44336 v 24.42383 H 48.060547 c -7.607408,0.0239 -14.904314,3.01616 -20.335938,8.34179 L 8.546875,401.28906 c -5.0410055,5.0848 -7.86287354,11.96001 -7.84765625,19.11914 v 76.14453 c 0.0145987,6.29723 2.52325785,12.33523 6.97656245,16.78907 4.4532638,4.44972 10.4894608,6.95616 16.7871098,6.97265 h 76.152339 c 3.57215,0.0124 7.11286,-0.68771 10.41407,-2.05273 3.3012,-1.36502 6.29782,-3.37416 8.81836,-5.90625 L 278.67383,353.54883 c 38.82182,13.61927 81.11891,13.64845 119.96094,0.084 38.83914,-13.56401 71.92204,-39.91686 93.82421,-74.74219 21.89805,-34.82491 31.32128,-76.05629 26.71485,-116.93554 C 514.57153,121.07588 496.21951,82.972252 467.12109,53.888672 438.03503,24.794781 399.92635,6.4425996 359.04297,1.8398438 353.9325,1.2644941 348.81527,0.90774669 343.70703,0.76757812 Z M 340.14062,33.841797 c 4.27457,0.04202 8.55849,0.26698 12.8418,0.681641 34.26571,3.317287 66.31293,18.447258 90.65235,42.794921 l 0.10742,0.05469 c 24.3724,24.334883 39.51595,56.387223 42.83984,90.664063 3.32388,34.27643 -5.38276,68.64163 -24.625,97.20312 -19.24224,28.56191 -47.82132,49.54129 -80.83789,59.3418 -33.01657,9.80051 -68.41407,7.81241 -100.125,-5.625 -3.03851,-1.28666 -6.39193,-1.63754 -9.63086,-1.00781 -3.23893,0.63013 -6.21623,2.21325 -8.55078,4.54492 L 98.128906,487.10547 H 33.857422 V 422.8418 l 16.193359,-16.19141 h 39.070313 c 5.657615,0 11.083786,-2.24785 15.083986,-6.24805 4.00063,-4.00021 6.24805,-9.42205 6.24804,-15.08007 v -35.97266 h 35.86524 c 5.6572,0 11.08336,-2.24826 15.08398,-6.24805 4.00021,-4.00021 6.24805,-9.42524 6.24805,-15.08203 v -39.01172 l 30.83594,-30.83398 c 2.33208,-2.33414 3.91478,-5.31031 4.54492,-8.54883 0.62972,-3.23852 0.27886,-6.59277 -1.00781,-9.63086 -13.41101,-31.70434 -15.37847,-67.08454 -5.56641,-100.08008 9.81165,-32.99595 30.79307,-61.552311 59.34961,-80.779294 24.98661,-16.823611 54.41203,-25.587141 84.33398,-25.292969 z m 34.02735,52.150391 c -16.12208,0 -31.5842,6.405744 -42.98438,17.804692 -11.40018,11.39894 -17.80468,26.85767 -17.80468,42.97851 0,12.02166 3.56461,23.77395 10.24414,33.76953 6.67952,9.99557 16.17345,17.78648 27.28125,22.38672 11.1078,4.60065 23.33067,5.80427 35.12304,3.45898 11.79031,-2.34528 22.62363,-8.13411 31.12305,-16.63476 8.50353,-8.50065 14.29412,-19.33037 16.64063,-31.12109 2.34239,-11.79072 1.13919,-24.01259 -3.45899,-35.11915 -4.6023,-11.10656 -12.39227,-20.6006 -22.38867,-27.279292 -9.9964,-6.679112 -21.75043,-10.24414 -33.77539,-10.24414 z m -0.44141,33.154292 c 3.63318,-0.007 7.23174,0.70267 10.58985,2.0879 3.361,1.38522 6.41321,3.42 8.98242,5.98632 2.57333,2.56632 4.61414,5.61311 6.0039,8.96875 1.39389,3.35564 2.11133,6.95317 2.11133,10.58594 h -0.0566 c 0,5.4642 -1.62104,10.80586 -4.65625,15.34961 -3.03521,4.54333 -7.35271,8.08453 -12.40039,10.17578 -5.04893,2.09124 -10.60497,2.63871 -15.96484,1.57227 -5.36028,-1.06604 -10.28432,-3.69643 -14.14844,-7.56055 -3.86453,-3.86371 -6.49646,-8.78702 -7.5625,-14.14648 -1.06644,-5.35945 -0.51897,-10.91439 1.57227,-15.9629 2.09166,-5.04851 5.63399,-9.36281 10.17773,-12.39843 4.54415,-3.03604 9.88653,-4.65821 15.35156,-4.65821 z" />
</svg>
