<?xml version="1.0" encoding="UTF-8" standalone="no"?>
<svg
   aria-hidden="true"
   focusable="false"
   role="img"
   viewBox="0 0 512 512"
   version="1.1"
   width="512"
   height="512"
   xmlns="http://www.w3.org/2000/svg">
  <path
     fill="currentColor"
     d="M 432,224 H 408 V 152 C 408,68.2 339.8,0 256,0 172.2,0 104,68.2 104,152 v 72 H 80 c -26.5,0 -48,21.5 -48,48 v 192 c 0,26.5 21.5,48 48,48 h 352 c 26.5,0 48,-21.5 48,-48 V 272 c 0,-26.5 -21.5,-48 -48,-48 z m -104,0 H 184 v -72 c 0,-39.7 32.3,-72 72,-72 39.7,0 72,32.3 72,72 z"
    />
</svg>
