<?xml version="1.0" encoding="UTF-8" standalone="no"?>
<svg
        width="520"
        height="520"
        viewBox="0 0 520 520"
        fill="none"
        version="1.1"
        xmlns="http://www.w3.org/2000/svg"
>
    <path
            fill="currentColor"
            d="m 260.85352,0.17578125 c -35.9773,0 -63.94305,6.50350235 -84.94336,19.77929675 -21.50074,13.592402 -33.59296,32.942858 -40.0625,54.199219 -6.28956,20.664051 -7.39541,43.511243 -7.19922,65.322263 0.0919,10.20833 0.48253,20.60071 0.86133,30.69532 0.0296,0.79227 0.0585,1.58296 0.0879,2.37109 0.15288,4.09387 0.30117,8.14021 0.42578,12.14258 h -4.47656 c -38.092022,0 -68.972661,30.88064 -68.972661,68.97265 v 196.8086 c 0,38.09201 30.880639,68.97265 68.972661,68.97265 h 270.61523 c 38.09013,0 68.9707,-30.88064 68.9707,-68.97265 V 253.6582 c 0,-38.09201 -30.88057,-68.97265 -68.9707,-68.97265 h -4.47852 c 0.12466,-4.00237 0.27283,-8.04871 0.42579,-12.14258 0.0296,-0.78925 0.0578,-1.58003 0.0879,-2.37305 0.37879,-10.09348 0.76944,-20.48654 0.86132,-30.69336 0.19653,-21.8114 -0.90846,-44.658216 -7.19726,-65.322263 C 379.39182,52.897931 367.29995,33.547817 345.79883,19.955078 324.79889,6.6792069 296.83118,0.17578125 260.85352,0.17578125 Z m 0,39.53710975 c 31.67669,0 51.37595,5.796314 63.81836,13.662109 11.94159,7.549496 19.06947,18.182738 23.36328,32.291016 4.4742,14.700214 5.67424,32.598234 5.48632,53.455074 -0.0866,9.61789 -0.45453,19.46631 -0.83789,29.68555 -0.0282,0.75123 -0.0578,1.50441 -0.0859,2.25977 -0.16756,4.48549 -0.33328,9.03726 -0.47071,13.61914 H 169.58008 c -0.13744,-4.58188 -0.30509,-9.13365 -0.47266,-13.61914 -0.0282,-0.75461 -0.0559,-1.50698 -0.084,-2.25782 -0.38298,-10.21962 -0.75119,-20.06885 -0.83789,-29.6875 -0.18791,-20.85684 1.01214,-38.75486 5.48633,-53.455074 C 177.96607,71.557739 185.09514,60.924496 197.03711,53.375 209.4799,45.509205 229.1772,39.712891 260.85352,39.712891 Z M 125.54688,224.22266 h 270.61523 c 16.25764,0 29.43359,13.17942 29.43359,29.43554 v 196.8086 c 0,16.25575 -13.17595,29.43554 -29.43359,29.43554 H 125.54688 c -16.25576,0 -29.433599,-13.17979 -29.433599,-29.43554 V 253.6582 c 0,-16.25612 13.177829,-29.43554 29.433599,-29.43554 z m 137.64453,65.05468 c -0.51433,-0.0109 -1.0318,-0.008 -1.55274,0.01 -16.66958,0 -30.11328,14.33422 -30.11328,32.10937 0,12.04138 5.91508,22.36353 15.05664,28.09766 v 52.75195 c 0,8.60045 6.45281,16.05469 15.05664,16.05469 8.06612,0 15.05664,-6.87812 15.05664,-16.05469 v -52.75195 c 9.14154,-5.73413 15.05664,-16.05628 15.05664,-28.09766 0,-17.77524 -12.61655,-31.78235 -28.56054,-32.11914 z"/>
</svg>
