<?xml version="1.0" encoding="UTF-8" standalone="no"?>
<svg
        width="520"
        height="520"
        viewBox="0 0 520 520"
        fill="none"
        version="1.1"
        xmlns="http://www.w3.org/2000/svg"
>
    <path
            fill="currentColor"
            d="m 152.05859,0.17578125 c -53.944686,0 -97.675778,44.70621475 -97.675778,99.85546875 v 319.54102 c 0,55.14735 43.731092,99.85546 97.675778,99.85546 h 182.32618 c 10.78894,0 19.53515,-8.94275 19.53515,-19.9707 0,-11.03175 -8.74621,-19.9707 -19.53515,-19.9707 H 152.05859 c -32.36682,0 -58.605465,-26.82641 -58.605465,-59.91406 V 100.03125 c 0,-33.089553 26.238645,-59.914062 58.605465,-59.914062 h 182.32618 c 10.78894,0 19.53515,-8.940892 19.53515,-19.970704 0,-11.0298516 -8.74621,-19.97070275 -19.53515,-19.97070275 z M 386.45898,161.89844 c -5.83154,0.10357 -11.62414,2.48165 -15.99609,7.10937 -8.52995,9.02903 -8.52995,23.34412 0,32.37305 l 42.26563,43.19531 -207.11329,0.32617 c -12.58655,0 -22.79101,10.43124 -22.79101,23.29883 0,12.86758 10.20446,23.29883 22.79101,23.29883 l 206.85547,-0.32617 -42.00976,42.94922 c -9.05348,8.93952 -9.30448,23.6881 -0.56055,32.94336 8.74428,9.25566 23.17309,9.51185 32.22656,0.57226 0.18974,-0.18799 0.37556,-0.37839 0.5586,-0.57226 l 48.80078,-49.89063 c 26.70054,-27.29597 26.70175,-71.55287 0.002,-98.84961 L 402.6875,168.43555 c -4.52656,-4.46973 -10.39697,-6.64069 -16.22852,-6.53711 z"/>
</svg>
