<?xml version="1.0" encoding="UTF-8" standalone="no"?>
<svg
        width="512"
        height="512"
        viewBox="0 0 512 512"
        fill="none"
        version="1.1"
        xmlns="http://www.w3.org/2000/svg"
>
    <path
            fill="currentColor"
            d="M 1.4921875,177.9375 V 348.91602 H 31.503906 v -56.36719 l -2.978515,-75.27149 51.091797,131.63868 h 21.554692 l 51.21093,-131.75586 -2.97851,75.38867 v 56.36719 h 30.01172 V 177.9375 H 140.47266 L 90.574219,308.99023 40.554688,177.9375 Z m 265.8144525,0 -65.5,170.97852 h 31.32031 l 14.05274,-39.8086 h 67.16797 l 14.17382,39.8086 h 31.4375 L 294.3418,177.9375 Z m 100.87305,0 52.51758,84.78516 -53.71094,86.19336 H 402 l 37.39648,-62.70704 37.27344,62.70704 h 35.13281 l -53.59179,-86.19336 52.40234,-84.78516 h -34.77539 l -36.44141,61.76758 -36.44336,-61.76758 z m -87.41407,36.28516 25.12696,70.92968 h -50.25586 z"/>
</svg>
