<?xml version="1.0" encoding="UTF-8" standalone="no"?>
<svg
        width="520"
        height="520"
        viewBox="0 0 520 520"
        fill="none"
        version="1.1"
        xmlns="http://www.w3.org/2000/svg"
>
    <path
            fill="currentColor"
            d="m 422.45703,3.7507655 c -53.70926,0 -98.12305,44.7550375 -98.12305,98.8764045 0,4.22205 0.28582,8.44278 0.84766,12.61256 L 224.91211,151.10307 C 203.11304,114.92102 164.16563,92.216279 120.84961,92.216279 54.743807,92.216279 0,146.33877 0,213.99057 c 0,66.6115 53.711018,121.7743 120.84961,121.7743 26.8238,0 52.50006,-8.61159 73.67383,-24.52588 l 44.32226,37.35926 c -9.33702,16.51472 -14.70508,35.57505 -14.70508,55.86247 0,62.44489 50.6113,113.44819 112.58594,113.44819 63.00705,0 112.58594,-51.0033 112.58594,-113.44819 0,-62.44953 -50.61091,-113.44818 -112.58594,-113.44818 -26.9885,0 -51.81636,9.67648 -71.2539,25.75337 L 222.875,280.86143 c 12.6205,-19.6252 19.85742,-42.51472 19.85742,-66.87086 0,-8.0207 -1.10607,-16.04191 -2.85351,-24.0626 l 99.22265,-35.48882 c 17.32478,28.95488 48.89689,47.06442 83.35547,47.06442 54.74704,0 98.12695,-44.75466 98.12695,-98.8764 0,-54.121367 -44.41577,-98.8764045 -98.12695,-98.8764045 z m 0,41.6327375 c 32.02337,0 56.8125,26.019663 56.8125,57.243667 0,31.22437 -25.82498,57.24365 -56.8125,57.24365 -23.75568,0 -45.4459,-15.61107 -53.70898,-38.50882 -2.06596,-5.20419 -3.09766,-12.48995 -3.09766,-18.73483 0,-31.224004 25.82297,-57.243667 56.80664,-57.243667 z M 120.84961,132.8077 c 34.08588,0 64.04051,21.85815 75.40234,52.04147 2.06596,8.32623 4.13086,17.69364 4.13086,27.06095 0,19.77493 -6.19679,37.46818 -18.59179,52.0393 -14.46058,18.73424 -37.18457,29.1414 -60.94141,29.1414 -43.381754,0 -79.533204,-35.38713 -79.533204,-80.14155 0,-43.71375 35.118277,-80.14157 79.533204,-80.14157 z m 215.87695,199.83758 c 40.283,0 71.27149,32.26405 71.27149,71.81544 0,39.54753 -32.02128,71.81545 -71.27149,71.81545 -39.2506,0 -71.26953,-32.26792 -71.26953,-71.81545 0,-39.55139 32.01893,-71.81544 71.26953,-71.81544 z"/>
</svg>
