<?xml version="1.0" encoding="UTF-8" standalone="no"?>
<svg
        width="512"
        height="512"
        viewBox="0 0 512 512"
        fill="none"
        version="1.1"
        xmlns="http://www.w3.org/2000/svg"
>
    <path
            fill="currentColor"
            d="m 256.08203,0.25 c -13.673,5.9419e-4 -24.75781,11.086857 -24.75781,24.759766 V 231.32422 H 25.007812 c -13.673238,0 -24.75751491,11.08481 -24.757812,24.75781 -2.971e-4,13.67334 11.084684,24.75725 24.757812,24.75781 l 206.316408,0.01 v 206.30664 c 0,13.673 11.08481,24.75781 24.75781,24.75781 13.67334,0 24.75715,-11.08481 24.75781,-24.75781 l 0.01,-206.31641 h 206.30664 c 13.673,0 24.75781,-11.08285 24.75781,-24.75586 0,-13.673 -11.08481,-24.75876 -24.75781,-24.75976 l -206.29883,-0.0176 -0.0176,-206.300781 C 280.83852,11.332818 269.75504,0.24940581 256.08203,0.25 Z"/>
</svg>
