<?xml version="1.0" encoding="UTF-8" standalone="no"?>
<svg
        width="512"
        height="512"
        viewBox="0 0 512 512"
        fill="currentColor"
        version="1.1"
        id="svg4"
        xmlns="http://www.w3.org/2000/svg"
>
    <defs
            id="defs8"/>
    <path
            d="m 197.80469,34.25 c -36.39053,0 -67.40286,24.674236 -77.01758,58.076172 H 22.675781 c -12.027089,5.01e-4 -21.77684538,9.750258 -21.7773435,21.777348 -5.7439e-4,12.02785 9.7494965,21.77879 21.7773435,21.77929 h 98.111329 c 9.61487,33.40171 40.62721,58.07422 77.01758,58.07422 36.39041,0 67.40268,-24.67241 77.01758,-58.07422 h 214.86132 c 12.02861,5.8e-4 21.77987,-9.75068 21.7793,-21.77929 -5e-4,-12.02785 -9.75145,-21.777928 -21.7793,-21.777348 H 274.82227 C 265.20752,58.924136 234.19527,34.25 197.80469,34.25 Z m 0,43.556641 c 20.53106,0 36.59765,16.05354 36.59765,36.296879 0,20.24332 -16.06659,36.29687 -36.59765,36.29687 -20.53104,0 -36.59766,-16.05342 -36.59766,-36.29687 0,-20.243461 16.06662,-36.296879 36.59766,-36.296879 z M 343.74414,324.62695 c -37.28771,0 -68.39094,23.63137 -77.14764,58.28943 l -10.41681,-0.21326 H 22.675781 c -12.02709,5e-4 -21.77684648,9.75026 -21.7773435,21.77735 -5.7991e-4,12.02785 9.7494925,21.7788 21.7773435,21.7793 H 256.17969 l 10.17236,0.36404 c 8.70415,34.73173 40.05177,57.71017 77.39209,57.71017 36.3902,0 67.40232,-24.67215 77.01758,-58.07421 h 68.92187 c 12.02862,5.8e-4 21.77988,-9.75068 21.7793,-21.7793 -5e-4,-12.02785 -9.75145,-21.77793 -21.7793,-21.77735 H 420.76172 C 411.14706,349.30015 380.135,324.62695 343.74414,324.62695 Z m 0,43.55664 c 20.53185,0 36.59961,16.05278 36.59961,36.29688 0,20.24411 -16.06776,36.29687 -36.59961,36.29687 -20.53182,0 -36.5957,-16.05144 -36.5957,-36.29687 0,-20.24542 16.06388,-36.29688 36.5957,-36.29688 z"
            id="path2"/>
</svg>
