<?xml version="1.0" encoding="UTF-8" standalone="no"?>
<svg
   width="512"
   height="512"
   viewBox="0 0 512 512"
   fill="none"
   version="1.1"
   id="svg6"
   xmlns="http://www.w3.org/2000/svg"
   xmlns:svg="http://www.w3.org/2000/svg">
  <path
     id="path2"
     fill="currentColor"
     d="M 100.14453,0.00390625 C 90.968782,0.17190087 82.867195,6.7581547 81.126953,16.132812 L 55.537109,153.99219 c -0.955041,5.14496 0.171987,10.4581 3.134766,14.77148 2.962621,4.31338 7.519102,7.27329 12.664063,8.22852 l 138.148442,25.64453 c 10.71372,1.98858 21.01115,-5.08483 23,-15.79883 1.98885,-10.71373 -5.08509,-21.01116 -15.79883,-23 l -94.26953,-17.49805 c 29.30728,-28.5873 67.00338,-47.065538 107.61914,-52.546871 41.39751,-5.586665 83.48655,2.572947 119.79882,23.224611 36.30963,20.65193 64.8379,52.65324 81.20118,91.08984 16.35801,38.43634 19.64951,81.18265 9.36328,121.66992 -10.28887,40.48727 -33.58468,76.4798 -66.3086,102.44532 -32.72392,25.96552 -73.06906,40.46835 -114.83593,41.28125 -41.76476,0.8129 -82.64254,-12.11006 -116.35352,-36.78125 C 109.18968,412.05147 84.510043,376.9979 72.654297,336.93945 69.561848,326.4901 58.585618,320.52538 48.136719,323.61914 c -10.448898,3.09114 -16.412822,14.07018 -13.320313,24.51953 14.308661,48.34532 44.093933,90.65484 84.779294,120.42969 40.6851,29.77485 90.01952,45.36994 140.42578,44.38867 50.40915,-0.98127 99.10023,-18.4828 138.59571,-49.82031 39.49547,-31.33752 67.6102,-74.77705 80.02734,-123.64063 12.41452,-48.86358 8.4437,-100.45544 -11.30273,-146.84375 -19.74642,-46.3891 -54.17694,-85.0127 -98,-109.937496 C 325.51611,57.790576 274.72079,47.942668 224.75781,54.685547 179.82575,60.74918 137.83053,79.965588 103.89453,109.69336 l 16.03125,-86.357422 c 1.98885,-10.71392 -5.08509,-21.013179 -15.79883,-23.00195362 -1.33925,-0.24859717 -2.6716,-0.35407736 -3.98242,-0.33007813 z" />
</svg>
