<?xml version="1.0" encoding="UTF-8" standalone="no"?>
<svg
   width="512"
   height="512"
   viewBox="0 0 512 512"
   fill="none"
   version="1.1"
   xmlns="http://www.w3.org/2000/svg"
   xmlns:svg="http://www.w3.org/2000/svg">
  <defs
     id="defs10" />
  <path
     id="path2"
     fill="currentColor"
     d="M 105.48242 -0.078125 C 47.319653 -0.078125 0.16992188 47.073556 0.16992188 105.23633 L 0.16992188 406.12891 C 0.16992187 464.29169 47.319653 511.44141 105.48242 511.44141 L 406.37695 511.44141 C 464.53972 511.44141 511.68945 464.29169 511.68945 406.12891 L 511.68945 105.23633 C 511.68945 47.073556 464.53972 -0.078125 406.37695 -0.078125 L 105.48242 -0.078125 z M 105.48242 45.056641 L 406.37695 45.056641 C 439.61367 45.056641 466.55469 72.0005 466.55469 105.23633 L 466.55469 406.12891 C 466.55469 439.36564 439.61367 466.30859 406.37695 466.30859 L 105.48242 466.30859 C 72.246596 466.30859 45.304688 439.36564 45.304688 406.12891 L 45.304688 105.23633 C 45.304687 72.0005 72.246596 45.056641 105.48242 45.056641 z M 255.92969 120.2793 C 247.6208 120.2796 240.88477 127.01758 240.88477 135.32617 L 240.88477 240.63672 L 135.57227 240.63672 C 127.26339 240.63672 120.52764 247.37276 120.52734 255.68164 C 120.52705 263.99053 127.26339 270.72626 135.57227 270.72656 L 240.88477 270.73047 L 240.88477 376.03906 C 240.88477 384.34674 247.62081 391.08398 255.92969 391.08398 C 264.23858 391.08398 270.97431 384.34674 270.97461 376.03906 L 270.97852 270.72656 L 376.28711 270.72656 C 384.59477 270.72656 391.33203 263.99247 391.33203 255.68359 C 391.33203 247.37502 384.59477 240.63733 376.28711 240.63672 L 270.98438 240.62891 L 270.97461 135.32422 C 270.974 127.01534 264.23827 120.279 255.92969 120.2793 z " />
</svg>
