<?xml version="1.0" encoding="UTF-8" standalone="no"?>
<svg
        width="520"
        height="520"
        viewBox="0 0 520 520"
        fill="none"
        version="1.1"
        xmlns="http://www.w3.org/2000/svg"
>
    <path
            fill="currentColor"
            d="M 255.75586,0.31640625 C 230.85895,0.60586973 206.0074,4.7403279 182.10156,12.708984 l -37.17773,12.392578 c -25.57372,8.524565 -42.82422,32.457022 -42.82422,59.414063 V 440.17383 c 0,26.95769 17.25046,50.88819 42.82422,59.41211 l 1.64258,0.55078 c 70.92222,23.63923 147.45926,24.52946 218.91211,2.54297 l 11.24414,-3.46094 c 26.27805,-8.08469 44.21093,-32.36421 44.21093,-59.85547 V 85.326172 c 0,-27.494178 -17.93288,-51.771742 -44.21093,-59.857422 L 329.67969,10.992188 C 305.59492,3.5814901 280.65277,0.02694277 255.75586,0.31640625 Z m -68.25391,46.59960975 14.73438,4.912109 c 11.03001,3.676995 22.5823,5.550781 34.20898,5.550781 h 47.38281 c 13.76222,0 27.39805,-2.625232 40.17579,-7.736328 l 6.57617,-2.630859 36.09765,11.107422 c 11.94455,3.675043 20.09571,14.709736 20.09571,27.207031 V 439.36328 c 0,12.49632 -8.15116,23.53068 -20.09571,27.20703 l -11.24609,3.45899 c -64.64771,19.8913 -133.89466,19.08838 -198.0625,-2.30274 l -1.64258,-0.54687 c -11.62441,-3.8748 -19.46484,-14.75355 -19.46484,-27.00586 V 84.515625 c 0,-12.252964 7.84043,-23.131383 19.46484,-27.005859 z m 77.22461,110.072264 c -12.57118,0 -22.66211,9.92626 -22.66211,22.33203 0,12.24035 10.09093,22.33008 22.66211,22.33008 12.57124,0 22.4961,-10.08973 22.4961,-22.33008 0,-12.40577 -9.92486,-22.33203 -22.4961,-22.33203 z m -1.91992,71.12695 c -10.26745,0 -18.5918,8.3244 -18.5918,18.5918 v 90.96094 c 0,10.26741 8.32435,18.5918 18.5918,18.5918 h 4.00391 c 10.2674,0 18.59179,-8.32439 18.59179,-18.5918 v -90.96094 c 0,-10.2674 -8.32439,-18.5918 -18.59179,-18.5918 z"/>
</svg>
