<?xml version="1.0" encoding="UTF-8" standalone="no"?>
<svg
   width="512"
   height="512"
   viewBox="0 0 512 512"
   version="1.1"
   xmlns="http://www.w3.org/2000/svg"
   xmlns:svg="http://www.w3.org/2000/svg">
  <path
     d="m 10.676221,380.05274 c 3.406559,3.43432 7.459428,6.16065 11.924669,8.02072 4.465727,1.86057 9.255393,2.8182 14.09294,2.8182 4.837547,0 9.627211,-0.95763 14.092451,-2.8182 4.465239,-1.86007 8.518109,-4.5864 11.925059,-8.02072 L 230.54261,212.22147 c 3.40647,-3.43431 7.45934,-6.16065 11.92458,-8.02072 4.46572,-1.86055 9.25539,-2.81819 14.09292,-2.81819 4.83755,0 9.62722,0.95764 14.09246,2.81819 4.46524,1.86007 8.51811,4.58641 11.92506,8.02072 L 450.4089,380.05274 c 3.405,3.43432 7.46031,6.16065 11.92603,8.02072 4.46574,1.86057 9.25393,2.8182 14.091,2.8182 4.83705,0 9.62524,-0.95763 14.09097,-2.8182 4.46574,-1.86007 8.52105,-4.5864 11.92652,-8.02072 6.82563,-6.86618 10.65619,-16.15333 10.65619,-25.83428 0,-9.68096 -3.83056,-18.96861 -10.65619,-25.8343 L 334.24622,160.18694 c -20.61272,-20.58681 -48.55382,-32.15036 -77.68611,-32.15036 -29.13227,0 -57.07387,11.56355 -77.68609,32.15036 L 10.676221,328.38416 c -6.8250894,6.86569 -10.65599077,16.15334 -10.65599077,25.8343 0,9.68095 3.83090137,18.9681 10.65599077,25.83428 z"
     fill="currentColor"
  />
</svg>
