<?xml version="1.0" encoding="UTF-8" standalone="no"?>
<svg
   width="512"
   height="512"
   viewBox="0 0 512 512"
   fill="none"
   version="1.1"
   xmlns="http://www.w3.org/2000/svg"
   xmlns:svg="http://www.w3.org/2000/svg">
  <defs
     id="defs10" />
  <path
     id="path2"
     fill="currentColor"
     d="M 73.820312 44 C 33.115148 44 9.4739031e-15 77.373174 0 118.39453 L 0 396.13281 C 0 437.15616 33.115148 470.52734 73.820312 470.52734 L 438.00586 470.52734 C 478.71073 470.52734 511.82617 437.15616 511.82617 396.13281 L 511.82617 301.89844 L 511.83203 301.89844 L 511.83203 212.62695 L 511.82617 212.62695 L 511.82617 118.39453 C 511.82617 77.373174 478.71073 44 438.00586 44 L 73.820312 44 z M 73.820312 83.986328 L 438.00586 83.986328 C 456.79578 83.986328 472.14844 99.457311 472.14844 118.39453 L 472.14844 212.62695 L 374.0332 212.625 C 349.61027 212.625 329.74023 232.64828 329.74023 257.26172 C 329.74023 281.87488 349.61027 301.89844 374.0332 301.89844 L 472.14844 301.89844 L 472.14844 396.13281 C 472.14844 415.0706 456.79578 430.54102 438.00586 430.54102 L 73.820312 430.54102 C 55.02896 430.54102 39.677734 415.0706 39.677734 396.13281 L 39.677734 118.39453 C 39.677734 99.457311 55.02896 83.986328 73.820312 83.986328 z M 374.0332 242.38281 L 393.71875 242.38281 C 401.87394 242.38281 408.48242 249.04511 408.48242 257.26172 C 408.48242 265.47805 401.87394 272.14062 393.71875 272.14062 L 374.0332 272.14062 C 365.87801 272.14062 359.26953 265.47805 359.26953 257.26172 C 359.26953 249.04511 365.88086 242.38281 374.0332 242.38281 z " />
</svg>
