<?xml version="1.0" encoding="UTF-8" standalone="no"?>
<svg
        width="520"
        height="520"
        viewBox="0 0 520 520"
        fill="currentColor"
        version="1.1"
        id="svg4"
        xmlns="http://www.w3.org/2000/svg"
>
    <defs
            id="defs8"/>
    <path
            id="path2"
            d="m 258.95508,68.160156 c -34.94186,0 -69.5416,6.896961 -101.8125,20.296875 -32.27041,13.399859 -61.579233,33.038449 -86.244142,57.789059 l 34.863282,34.74414 c 20.0927,-20.16252 43.96751,-36.16028 70.25586,-47.07617 26.28854,-10.91584 54.4728,-16.53515 82.9375,-16.53515 28.46507,0 56.64766,5.61933 82.93554,16.53515 26.291,10.91589 50.16553,26.91377 70.25782,47.07617 l 34.86328,-34.74414 C 422.34747,121.49578 393.03868,101.85689 360.76562,88.457031 328.49539,75.057095 293.89724,68.160156 258.95508,68.160156 Z M 258.75391,259.0918 138.3125,379.5332 35.273438,276.49414 0.46875,311.29883 138.3125,449.14062 258.75391,328.69922 379.19531,449.14062 517.03711,311.29883 482.23438,276.49414 379.19531,379.5332 Z"/>
</svg>
