<?xml version="1.0" encoding="UTF-8" standalone="no"?>
<svg
        width="512"
        height="512"
        viewBox="0 0 512 512"
        version="1.1"
        xmlns="http://www.w3.org/2000/svg"
>
    <path
            fill="currentColor"
            d="M 74.072266,44.199219 C 33.227967,44.199219 0,77.429378 0,118.27344 V 394.8125 c 0,40.84454 33.227967,74.07227 74.072266,74.07227 H 439.5 c 40.84454,0 74.07422,-33.22773 74.07422,-74.07227 V 330.61523 H 375.30273 c -40.84455,0 -74.07031,-33.22699 -74.07031,-74.07226 0,-40.84406 33.22576,-74.07422 74.07031,-74.07422 h 138.27149 v -64.19531 c 0,-40.844062 -33.22968,-74.074221 -74.07422,-74.074221 z M 373.49414,211.34961 c -24.50599,0 -44.44531,19.93814 -44.44531,44.44531 0,24.50695 19.93834,44.44336 44.44531,44.44336 H 511.76367 V 211.35156 H 373.49414 Z m 0,29.63086 h 19.75195 c 8.18218,0 14.81446,6.63323 14.81446,14.81445 0,8.18096 -6.63228,14.81446 -14.81446,14.81446 h -19.75195 c -8.18218,0 -14.81445,-6.6335 -14.81445,-14.81446 0,-8.18122 6.63347,-14.81445 14.81445,-14.81445 z"/>
</svg>
