<?xml version="1.0" encoding="UTF-8" standalone="no"?>
<svg
        width="512"
        height="512"
        viewBox="0 0 512 512"
        version="1.1"
        xmlns="http://www.w3.org/2000/svg"
>
    <path
            fill="currentColor"
            d="m 260.41406,0.06835937 c -6.23628,-0.02026352 -12.41649,1.22483273 -18.16015,3.65820313 -5.74367,2.4333706 -10.93498,6.0046406 -15.26368,10.4999995 -4.32522,4.495708 -7.69472,9.820497 -9.90625,15.654297 -2.21151,5.83415 -3.21361,12.055583 -2.95507,18.289063 l 11.8789,248.277348 c 0.39828,8.62598 4.10482,16.7667 10.35157,22.73046 6.24675,5.96028 14.55454,9.28269 23.1875,9.27149 8.57008,-0.0315 16.80144,-3.33863 23.00976,-9.25 6.20484,-5.90787 9.91607,-13.97126 10.36328,-22.52734 L 306.53125,48.449219 c 0.30046,-6.241867 -0.6719,-12.478524 -2.85547,-18.333985 -2.18357,-5.855811 -5.53055,-11.206809 -9.8418,-15.730468 C 289.52275,9.8614566 284.33547,6.2594494 278.5918,3.7988281 272.84814,1.3382066 266.66431,0.06905812 260.41406,0.06835937 Z M 260.40234,406.57227 c -28.98732,0 -52.48828,23.49941 -52.48828,52.49023 0,28.98734 23.50096,52.49023 52.48828,52.49023 28.99084,0 52.49024,-23.50289 52.49024,-52.49023 0,-28.99082 -23.4994,-52.49023 -52.49024,-52.49023 z"/>
</svg>
