<?xml version="1.0" standalone="no"?>
<!DOCTYPE svg PUBLIC "-//W3C//DTD SVG 1.1//EN" "http://www.w3.org/Graphics/SVG/1.1/DTD/svg11.dtd" >
<svg xmlns="http://www.w3.org/2000/svg">
<metadata>Generated by IcoMoon</metadata>
<defs>
<font id="humaniq" horiz-adv-x="1024">
<font-face units-per-em="1024" ascent="960" descent="-64" />
<missing-glyph horiz-adv-x="1024" />
<glyph unicode="&#x20;" horiz-adv-x="512" d="" />
<glyph unicode="&#xe900;" glyph-name="bookmarked" d="M860.164-60.497c-15.633 0.045-31.099 3.183-45.509 9.241-14.411 6.055-27.477 14.907-38.447 26.042l-259.847 258.325-259.85-258.496c-16.688-16.93-38.092-28.442-61.417-33.032s-47.494-2.047-69.352 7.301c-22.076 8.879-40.964 24.21-54.191 43.988s-20.185 43.086-19.963 66.88v682.538c0 56.029 22.259 109.763 61.877 149.382s93.353 61.876 149.382 61.876h507.025c27.743 0 55.213-5.464 80.846-16.081 25.63-10.617 48.919-26.178 68.536-45.795s35.178-42.906 45.796-68.539c10.615-25.63 16.081-53.1 16.081-80.843v-682.538c0.236-23.774-6.697-47.069-19.895-66.844-13.194-19.775-32.046-35.118-54.089-44.024-14.88-6.225-30.854-9.414-46.983-9.381z" />
<glyph unicode="&#xe901;" glyph-name="fingerprint" d="M495.669 948.135c-8.971-0.112-17.006-0.375-23.135-0.804-67.279-4.709-125.833-18.052-187.323-42.688-20.792-8.33-63.245-28.971-70.708-34.377-8.338-6.040-12.208-17.444-9.365-27.596 1.832-6.543 9.077-14.359 15.088-16.273 9.435-3.005 11.674-2.331 40.715 12.258 81.85 41.118 160.040 59.64 251.742 59.631 92.311-0.010 166.808-18.286 256.458-62.915 20.86-10.384 21.766-10.713 27.808-10.108 7.951 0.796 14.201 4.862 18.346 11.935 6.254 10.671 4.625 23.26-4.019 31.069-4.998 4.515-21.821 13.322-48.496 25.385-62.488 28.258-122.549 44.913-187.104 51.885-17.734 1.915-53.093 2.935-80.008 2.6zM498.758 825.662c-43.624-1.002-77.348-5.374-118.488-15.362-81.162-19.704-154.585-57.376-215.996-110.819-13.922-12.116-41.338-39.747-53.1-53.515-11.599-13.579-33.739-43.121-36.246-48.365-2.619-5.479-3.309-13.923-1.569-19.196 1.913-5.797 7.7-12.17 13.404-14.762 6.188-2.811 13.857-2.727 19.935 0.215 3.902 1.889 7.069 5.349 15.192 16.608 71.668 99.326 176.509 165.386 297.323 187.342 52.313 9.507 110.108 10.68 163.458 3.319 73.57-10.151 146.413-38.201 205.119-78.988 39.985-27.78 78.418-65.381 109.146-106.777 10.055-13.547 13.119-16.858 18.046-19.519 3.264-1.763 7.582-3.204 9.592-3.2 14.37 0.026 25.13 10.994 25.188 25.677 0.032 8.056-1.455 11.009-14.108 28.023-102.736 138.152-259.77 213.388-436.896 209.319zM509.642 706.708c-84.803 0.027-168.026-26.312-238.412-76.658-77.304-55.295-132.013-136.367-151.662-224.75-18.382-82.683-9.69-190.517 22.677-281.335 5.249-14.727 8.367-19.337 15.369-22.727 11.51-5.572 25.507-1.002 31.385 10.25 1.983 3.795 3.242 8.035 3.242 10.9 0 2.582-3.184 14.437-7.085 26.381-11.839 36.248-19.554 70.248-23.835 105.023-2.957 24.023-3.593 76.406-1.204 99.062 4.323 41.003 14.329 76.403 30.977 109.588 54.447 108.537 162.075 180.65 287.069 192.342 20.79 1.945 63.24 0.809 82.981-2.223 81.319-12.491 149.43-47.046 205.127-104.062 26.827-27.462 44.937-52.794 61.542-86.092 23.33-46.784 34.75-93.449 34.938-142.769 0.091-23.897-1.461-31.933-9.15-47.358-14.015-28.116-38.687-46.926-70.896-54.050-12.419-2.747-37.135-1.91-49.485 1.673-17.067 4.952-33.507 14.874-45.781 27.635-18.073 18.791-25.694 37.64-27.262 67.438-1.345 25.556-5.709 43.373-15.408 62.885-13.364 26.886-33.435 48.006-60.2 63.35-33.224 19.046-74.019 24.477-111.738 14.881-43.637-11.102-78.519-39.242-98.35-79.346-10.296-20.822-14.422-40.317-14.404-68.038 0.059-85.558 31.076-170.054 86.765-236.369 9.729-11.585 33.893-35.92 46.665-46.992 35.88-31.104 79.726-55.282 131.115-72.308 12.405-4.11 14.435-4.448 27.277-4.519l13.873-0.077 4.235 4.45c7.559 7.946 9.077 19.019 4.004 29.2-4.066 8.16-7.944 10.441-28.992 17.054-45.408 14.265-78.864 31.55-111.3 57.5-15.132 12.106-40.194 36.721-52.146 51.219-46.397 56.278-72.326 127.618-72.658 199.9-0.117 25.478 3.944 41.096 15.038 57.812 17.987 27.101 47.114 43.505 80.273 45.215 31.507 1.625 59.201-9.173 80.254-31.292 18.413-19.345 25.434-36.991 27.277-68.55 1.58-27.053 5.718-43.386 16.073-63.435 20.825-40.321 58.809-68.634 105.181-78.404 13.654-2.877 43.332-2.89 57.104-0.027 67.327 14 115.393 66.735 121.2 132.981 1.166 13.303 0.030 42.338-2.377 60.696-21.708 165.561-147.723 299.853-314.388 335.046-28.202 5.955-56.644 8.891-84.912 8.9zM504.585 583.273c-44.166-1.191-78.077-9.526-117.127-28.785-30.323-14.955-54.387-32.551-77.212-56.458-38.959-40.805-62.88-89.098-72.192-145.758-2.877-17.503-2.85-69.097 0.046-94.404 5.233-45.723 15.491-87.501 30.508-124.269 14.182-34.725 43.241-84.811 66.712-114.981 20.115-25.856 52.267-59.785 58.546-61.781 5.508-1.75 13.985-0.879 19.665 2.019 11.149 5.688 16.068 20.522 10.715 32.312-1.21 2.666-8.497 11.58-16.196 19.812-33.542 35.858-51.361 60.224-74.754 102.219-31.796 57.082-46.983 115.551-48.619 187.208-0.868 38.007 2.274 59.179 13.054 87.992 25.549 68.292 85.353 120.756 157.904 138.515 46.197 11.308 97.402 7.92 141.019-9.327 82.219-32.512 137.581-108.219 141.765-193.869 0.838-17.162 1.911-21.206 7.185-27.050 5.25-5.818 9.945-7.915 17.731-7.915 10.32 0 19.523 6.732 22.835 16.704 1.583 4.765 1.784 8.335 1.123 19.9-2.229 39.021-11.409 73.751-28.319 107.127-27.319 53.919-69.633 95.603-124.438 122.588-41.291 20.331-83.342 29.457-129.95 28.2zM507.212 338.292c-5.906-0.304-11.636-2.872-15.938-7.635-6.040-6.686-6.75-9.306-6.604-24.419 0.926-95.798 60.94-189.434 148.7-232.012 27.067-13.132 54.191-20.695 87.408-24.369 15.883-1.757 57.346-0.511 75.604 2.273 21.298 3.247 28.223 7.010 32.719 17.773 5.79 13.861-3.999 32.039-18.388 34.142-2.671 0.391-9.748-0.092-15.727-1.069-21.134-3.454-43.782-4.588-62.612-3.138-41.233 3.174-72.545 13.526-103.085 34.081-40.212 27.066-69.972 66.103-85.142 111.688-6.144 18.461-9.048 33.548-10.546 54.8-1.502 21.304-3.029 26.496-9.396 31.946-5.004 4.283-11.087 6.243-16.992 5.938z" />
<glyph unicode="&#xe902;" glyph-name="arrow-to-bottom" d="M507.875 958.973c-35.245 0-63.816-28.571-63.816-63.816l0.895-579.758-117.465 117.469c-25.352 24.486-65.753 23.781-90.238-1.57-23.886-24.731-23.886-63.937 0-88.668l136.652-136.699c74.766-74.764 195.986-74.764 270.754 0l136.656 136.656c25.352 24.485 26.051 64.886 1.566 90.238s-64.883 26.052-90.234 1.566c-0.532-0.513-1.058-1.036-1.57-1.566l-118.402-118.359-0.977 580.691c0 35.245-28.575 63.816-63.82 63.816zM175.828 67.523c-35.796 0-64.813-29.013-64.813-64.809s29.016-64.816 64.813-64.816h668.086c35.796 0 64.816 29.020 64.816 64.816s-29.020 64.809-64.816 64.809z" />
<glyph unicode="&#xe903;" glyph-name="arrow-to-top" d="M512.32 959.414c-49.338 0-98.676-18.751-136.32-56.254l-0.004-0.004-137.602-137.090c-24.657-25.433-23.95-65.963 1.578-90.527 24.903-23.962 64.382-23.962 89.285 0l119.141 118.738 0.902-581.836c0-35.356 28.771-64.016 64.262-64.016s64.262 28.659 64.262 64.016l-0.898 581.109 118.457-118.012c24.657-25.433 65.339-26.139 90.867-1.574s26.232 65.094 1.578 90.527c-0.518 0.534-1.044 1.057-1.578 1.57l-137.609 137.094c-37.644 37.504-86.982 56.258-136.32 56.258zM174.52 65.066c-36.047 0-65.27-29.115-65.27-65.027s29.223-65.020 65.27-65.020h672.773c36.047 0 65.27 29.107 65.27 65.020s-29.223 65.027-65.27 65.027z" />
<glyph unicode="&#xe904;" glyph-name="backspace" d="M920.396 764h-592.41c-0.006 0-0.013 0-0.020 0-28.238 0-53.801-11.45-72.301-29.96l-240.694-240.678c-19.974-19.974-19.974-52.348 0-72.306l240.694-240.694c19.175-19.175 45.189-29.961 72.306-29.961h592.426c56.486 0 102.266 45.78 102.266 102.266v409.066c0 56.486-45.78 102.266-102.266 102.266zM785.069 358.034c9.987-9.987 9.987-26.174 0-36.161l-36.145-36.145c-9.987-9.987-26.174-9.987-36.161 0l-99.166 99.166-99.166-99.166c-9.987-9.987-26.174-9.987-36.161 0l-36.145 36.145c-9.987 9.987-9.987 26.174 0 36.161l99.166 99.166-99.166 99.166c-9.987 9.987-9.987 26.174 0 36.161l36.145 36.145c9.987 9.987 26.174 9.987 36.161 0l99.166-99.166 99.166 99.166c9.987 9.987 26.174 9.987 36.161 0l36.145-36.145c9.987-9.987 9.987-26.174 0-36.161l-99.166-99.166z" />
<glyph unicode="&#xe905;" glyph-name="camera" d="M215.652 958.918c-56.391-0.068-110.45-22.562-150.324-62.551s-62.307-94.205-62.375-150.758v-42.664c0-11.315 4.483-22.164 12.461-30.164s18.8-12.496 30.082-12.496c11.282 0 22.101 4.496 30.078 12.496s12.461 18.85 12.461 30.164v42.664c0 33.944 13.446 66.498 37.379 90.5s56.391 37.484 90.238 37.484h42.539c11.282 0 22.104 4.496 30.082 12.496s12.461 18.85 12.461 30.164c0 11.314-4.483 22.167-12.461 30.168s-18.8 12.496-30.082 12.496zM768.668 958.918c-11.282 0-22.103-4.495-30.078-12.496-7.98-8.001-12.461-18.853-12.461-30.168s4.481-22.164 12.461-30.164c7.975-8.001 18.797-12.496 30.078-12.496h42.539c33.845 0 66.307-13.482 90.242-37.484 23.93-24.002 37.379-56.556 37.379-90.5v-42.664c0-11.315 4.481-22.164 12.461-30.164 7.975-8 18.797-12.496 30.078-12.496s22.103 4.496 30.078 12.496c7.98 8.001 12.461 18.85 12.461 30.164v42.664c-0.068 56.553-22.501 110.769-62.375 150.758s-93.934 62.483-150.324 62.551zM409.742 634.953c-41.849 0-75.773-34.023-75.773-75.992v-222.543c0-41.968 33.925-75.988 75.773-75.988h207.379c41.848 0 75.777 34.020 75.777 75.988v222.543c0 41.969-33.93 75.992-75.777 75.992zM45.496 233.664c-11.282 0-22.104-4.493-30.082-12.496-7.978-7.998-12.461-18.85-12.461-30.164v-42.664c0.068-56.553 22.501-110.766 62.375-150.754s93.934-62.486 150.324-62.555h42.539c11.282 0 22.104 4.497 30.082 12.5 7.978 7.998 12.461 18.85 12.461 30.164s-4.483 22.166-12.461 30.164c-7.978 8.003-18.8 12.496-30.082 12.496h-42.539c-33.847 0-66.305 13.486-90.238 37.484-23.933 24.004-37.379 56.558-37.379 90.5v42.664c0 11.314-4.483 22.166-12.461 30.164-7.978 8.003-18.796 12.496-30.078 12.496zM981.367 233.664c-11.282 0-22.103-4.493-30.078-12.496-7.98-7.998-12.461-18.85-12.461-30.164v-42.664c0-33.942-13.449-66.496-37.379-90.5-23.936-23.999-56.398-37.484-90.242-37.484h-42.539c-11.282 0-22.103-4.493-30.078-12.496-7.98-7.998-12.461-18.85-12.461-30.164s4.481-22.166 12.461-30.164c7.975-8.003 18.797-12.5 30.078-12.5h42.539c56.391 0.068 110.45 22.566 150.324 62.555s62.307 94.201 62.375 150.754v42.664c0 11.314-4.48 22.166-12.461 30.164-7.975 8.003-18.797 12.496-30.078 12.496z" />
<glyph unicode="&#xe906;" glyph-name="check-circle" d="M1008 448c0-273.934-222.066-496-496-496s-496 222.066-496 496 222.066 496 496 496 496-222.066 496-496zM454.628 185.372l368 368c12.496 12.496 12.496 32.758 0 45.254l-45.254 45.254c-12.496 12.498-32.758 12.498-45.256 0l-300.118-300.116-140.118 140.118c-12.496 12.496-32.758 12.496-45.256 0l-45.254-45.254c-12.496-12.496-12.496-32.758 0-45.254l208-208c12.498-12.498 32.758-12.498 45.256-0.002z" />
<glyph unicode="&#xe907;" glyph-name="clock-arrows" d="M355.498 959.663c-39.196 0-70.97-31.774-70.97-70.97v0-424.71c0-37.616 14.843-73.755 41.445-100.356l405.027-405.027c12.849-12.881 30.618-20.851 50.247-20.851s37.398 7.969 50.246 20.849l0.001 0.001c12.84 12.842 20.781 30.583 20.781 50.178s-7.941 37.335-20.781 50.178l-405.027 405.027v424.71c0 39.196-31.774 70.97-70.97 70.97v0z" />
<glyph unicode="&#xe908;" glyph-name="clone" d="M928 960c53.020 0 96-42.98 96-96v-576c0-53.020-42.98-96-96-96h-576c-53.020 0-96 42.98-96 96v576c0 53.020 42.98 96 96 96h576zM352 128c-88.224 0-160 71.776-160 160v416h-96c-53.020 0-96-42.98-96-96v-576c0-53.020 42.98-96 96-96h576c53.020 0 96 42.98 96 96v96h-416z" />
<glyph unicode="&#xe909;" glyph-name="cog" d="M1023.125 448.438c0 38.050-27.42 78.616-61.217 90.58-33.803 11.965-66.566 41.264-76.103 64.368-9.532 23.105-7.060 67.074 8.373 99.459 15.409 32.385 6.065 80.476-20.843 107.385-26.885 26.91-74.978 36.232-107.383 20.822-32.388-15.411-76.291-17.926-99.334-8.392s-52.361 42.341-64.366 76.143c-12.033 33.801-52.639 61.197-90.689 61.197s-78.658-27.396-90.686-61.197c-12.029-33.801-41.327-66.609-64.368-76.143s-66.968-7.018-99.353 8.392c-32.385 15.41-80.476 6.088-107.385-20.822s-36.232-74.98-20.822-107.385c15.411-32.406 17.863-76.333 8.287-99.416s-42.236-52.446-76.037-64.411c-33.801-11.964-61.197-52.53-61.197-90.58s27.396-78.656 61.197-90.689c33.801-12.005 66.503-41.368 76.079-64.406 9.576-23.020 7.082-66.929-8.329-99.311-15.41-32.388-6.088-80.48 20.822-107.388 26.91-26.885 74.98-36.23 107.385-20.821s76.312 17.905 99.353 8.35c23.062-9.555 52.34-42.448 64.368-76.183 12.028-33.74 52.636-61.115 90.686-61.115s78.656 27.374 90.689 61.115c12.005 33.735 41.283 66.588 64.32 76.183 23.043 9.578 67.015 7.060 99.38-8.373 32.405-15.409 80.497-6.065 107.383 20.821 26.908 26.914 36.253 75.001 20.843 107.388-15.409 32.405-17.944 76.314-8.412 99.351 9.532 23.043 42.363 52.361 76.16 64.372 33.803 12.050 61.2 52.656 61.2 90.706zM511.562 260.723c-103.792 0-187.714 83.925-187.714 187.504 0 103.792 83.922 187.714 187.714 187.714 103.557 0 187.505-83.922 187.505-187.714 0-103.579-83.925-187.504-187.505-187.504z" />
<glyph unicode="&#xe90a;" glyph-name="cross" d="M56.883 960c-14.559-0.001-29.115-5.555-40.223-16.664-22.215-22.218-22.214-58.238 0.004-80.453l414.918-414.848-414.918-414.918c-22.216-22.219-22.22-58.238-0.004-80.453 22.216-22.219 58.24-22.219 80.457-0.004l414.918 414.887 414.848-414.883c22.215-22.219 58.238-22.219 80.453-0.004 22.219 22.215 22.219 58.238 0.004 80.453l-414.871 414.902 414.871 414.867c22.215 22.216 22.215 58.236 0 80.453s-58.238 22.214-80.457 0l-414.883-414.812-414.887 414.816c-11.109 11.107-25.671 16.661-40.23 16.66z" />
<glyph unicode="&#xe90b;" glyph-name="done" d="M928.799 809.438c-13.268-3.628-24.655-10.397-33.733-19.475l-548.73-548.737c0 0-0.006 0-0.006 0l-217.668 217.668c-13.616 13.616-32.427 22.038-53.205 22.038s-39.589-8.422-53.205-22.038v0c-13.616-13.616-22.038-32.427-22.038-53.205s8.422-39.589 22.038-53.205l217.668-217.668c58.138-58.139 154.682-58.139 212.819 0l548.737 548.737c13.616 13.616 22.038 32.427 22.038 53.205s-8.422 39.589-22.038 53.205v0c-13.616 13.616-32.427 22.038-53.205 22.038-6.925 0-13.632-0.936-20-2.687l0.528 0.124z" />
<glyph unicode="&#xe90c;" glyph-name="double-arrows" d="M771.723 855.668c-24.889 0-45.246-20.377-45.246-45.281v-596.34l-130.313 130.406c-17.651 17.659-46.155 17.659-63.801 0s-17.646-46.183 0-63.84l207.684-207.836c17.646-17.662 46.151-17.662 63.797 0l207.684 207.836c17.646 17.657 17.646 46.18 0 63.84s-46.151 17.659-63.797 0l-130.762-130.406v596.34c0 24.904-20.362 45.281-45.246 45.281zM254.484 833.324c-11.538 0-23.075-4.413-31.898-13.242l-207.684-207.836c-17.646-17.659-17.646-46.189 0-63.848s46.151-17.659 63.797 0l130.766 130.41v-596.34c0-24.906 20.36-45.281 45.246-45.281s45.246 20.375 45.246 45.281v596.34l130.313-130.41c17.646-17.659 46.155-17.659 63.801 0s17.647 46.189 0 63.848l-207.688 207.836c-8.823 8.83-20.36 13.242-31.898 13.242z" />
<glyph unicode="&#xe90d;" glyph-name="down" d="M21.352 690.249c6.813 6.869 14.919 12.321 23.849 16.041 8.931 3.721 18.511 5.636 28.186 5.636s19.254-1.915 28.185-5.636c8.93-3.72 17.036-9.173 23.85-16.041l335.663-335.663c6.813-6.869 14.919-12.321 23.849-16.041s18.511-5.636 28.186-5.636c9.675 0 19.254 1.915 28.185 5.636s17.036 9.173 23.85 16.041l335.663 335.663c6.81 6.869 14.921 12.321 23.852 16.041 8.931 3.721 18.508 5.636 28.182 5.636s19.25-1.915 28.182-5.636c8.931-3.72 17.042-9.173 23.853-16.041 13.651-13.732 21.312-32.307 21.312-51.669s-7.661-37.937-21.312-51.669l-336.394-336.394c-41.225-41.174-97.108-64.301-155.372-64.301s-114.148 23.127-155.372 64.301l-336.396 336.394c-13.65 13.731-21.312 32.307-21.312 51.669s7.662 37.936 21.312 51.669z" />
<glyph unicode="&#xe90e;" glyph-name="frame" d="M210.918 959.899h602.152c116.395 0 210.751-94.353 210.751-210.743v-602.128c0-116.39-94.356-210.742-210.751-210.742h-602.152c-116.395 0-210.752 94.352-210.752 210.742v602.128c0 116.39 94.357 210.743 210.752 210.743zM210.918 869.579c-66.511 0-120.428-53.915-120.428-120.423v-602.128c0-66.509 53.917-120.423 120.428-120.423h602.152c66.511 0 120.428 53.915 120.428 120.423v602.128c0 66.509-53.917 120.423-120.428 120.423z" />
<glyph unicode="&#xe90f;" glyph-name="globe" d="M498.148 960c-99.638-51.154-175.397-138.347-220.703-249.457 67.444-34.424 142.723-53.949 220.703-56.234zM539.883 954.266v-299.512c73.887 3.767 145.248 23.344 209.539 56.688-43.694 106.636-115.484 191.161-209.539 242.824zM408.137 952.516c-101.839-21.329-192.678-72.911-262.684-144.867 28.693-29.416 60.72-55.017 95.293-76.437 37.737 90.399 94.581 166.084 167.391 221.305zM619.094 952.516c72.494-54.981 129.169-130.25 166.906-220.133 34.215 21.517 65.96 47.175 94.438 76.633-69.824 71.243-160.153 122.306-261.344 143.5zM908.477 778.020c-32.301-33.067-68.418-61.643-107.375-85.328 23.72-69.166 36.919-145.813 38.395-227.672h187.727c-3.527 118.789-47.564 227.573-118.746 313zM117.516 776.562c-70.465-85.203-114.005-193.432-117.516-311.543h187.727c1.469 81.399 14.539 157.641 38.008 226.504-39.317 23.56-75.712 52.050-108.219 85.039zM763.949 672.027c-68.941-34.925-145.197-55.326-224.066-59.043v-147.965h257.875c-1.414 74.333-13.033 143.974-33.809 207.008zM262.977 671.117c-20.586-62.794-32.098-132.124-33.504-206.098h268.68l-0.004 147.527c-82.931 2.251-163.079 22.6-235.172 58.57zM0.41 423.285c5.762-113.906 48.793-218.143 117.105-300.738 32.507 32.985 68.904 61.477 108.219 85.039-22.425 65.807-35.363 138.351-37.75 215.699zM229.746 423.285c2.277-69.931 13.649-135.569 33.23-195.297 72.095 35.971 152.241 56.324 235.172 58.57v136.727zM539.883 423.285v-137.168c78.869-3.716 155.126-24.11 224.066-59.035 19.765 59.967 31.244 125.92 33.531 196.203zM839.242 423.285c-2.399-77.807-15.467-150.758-38.141-216.871 38.957-23.685 75.074-52.261 107.375-85.328 69.017 82.83 112.541 187.619 118.34 302.199zM498.148 244.797c-77.98-2.287-153.259-21.81-220.703-56.234 45.306-111.109 121.065-198.3 220.703-249.457zM539.883 244.355v-299.512c94.055 51.662 165.85 136.187 209.539 242.824-64.291 33.342-135.657 52.92-209.539 56.688zM240.746 167.895c-34.573-21.418-66.6-47.017-95.293-76.434 70.006-71.958 160.844-123.541 262.684-144.867-72.81 55.22-129.657 130.901-167.391 221.301zM786 166.727c-37.737-89.885-94.411-165.151-166.91-220.137 101.196 21.199 191.524 72.257 261.348 143.5-28.483 29.453-60.227 55.116-94.438 76.637z" />
<glyph unicode="&#xe910;" glyph-name="home" d="M985.343 572.143l-323.046 323.086c-39.98 39.865-94.137 62.25-150.597 62.25s-110.616-22.386-150.597-62.25l-323.044-323.086c-11.907-11.831-21.347-25.908-27.774-41.414s-9.711-32.134-9.663-48.919v-418.104c0-33.884 13.461-66.383 37.423-90.346s56.46-37.424 90.347-37.424h766.618c33.884 0 66.383 13.461 90.346 37.424s37.424 56.461 37.424 90.346v418.104c0.045 16.785-3.239 33.413-9.666 48.919s-15.863 29.583-27.771 41.414zM639.47 21.114h-255.539v167.55c0 33.884 13.461 66.383 37.423 90.346s56.46 37.424 90.346 37.424c33.886 0 66.385-13.461 90.347-37.424s37.422-56.461 37.422-90.346zM937.596 63.705c0-11.295-4.485-22.13-12.47-30.115s-18.82-12.477-30.115-12.477h-170.361v167.55c0 56.48-22.436 110.642-62.371 150.577-39.936 39.936-94.1 62.371-150.577 62.371s-110.642-22.436-150.577-62.371c-39.936-39.936-62.371-94.097-62.371-150.577v-167.55h-170.359c-11.295 0-22.128 4.491-30.115 12.477s-12.475 18.82-12.475 30.115v418.104c0.040 11.287 4.523 22.105 12.479 30.111l323.043 322.958c24.008 23.896 56.503 37.311 90.376 37.311s66.368-13.415 90.376-37.311l323.042-323.086c7.928-7.975 12.406-18.741 12.477-29.983z" />
<glyph unicode="&#xe911;" glyph-name="lock" d="M513.681 959.654c-70.848 0-125.919-12.807-167.273-38.95-42.34-26.767-66.152-64.872-78.892-106.731-12.386-40.692-14.563-85.684-14.177-128.635 0.181-20.103 0.95-40.568 1.696-60.446 0.058-1.56 0.115-3.117 0.173-4.669 0.301-8.062 0.593-16.030 0.838-23.912h-8.815c-75.012 0-135.823-60.811-135.823-135.823v-387.562c0-75.012 60.811-135.823 135.823-135.823h532.904c75.008 0 135.819 60.811 135.819 135.823v387.562c0 75.012-60.811 135.823-135.819 135.823h-8.819c0.245 7.882 0.537 15.85 0.838 23.912 0.058 1.554 0.114 3.111 0.173 4.673 0.746 19.876 1.515 40.343 1.696 60.442 0.387 42.952-1.789 87.942-14.173 128.635-12.74 41.859-36.552 79.964-78.892 106.731-41.354 26.143-96.429 38.95-167.277 38.95zM513.681 881.796c62.379 0 101.171-11.414 125.673-26.904 23.516-14.867 37.552-35.806 46.008-63.588 8.811-28.948 11.174-64.193 10.804-105.265-0.171-18.94-0.895-38.334-1.65-58.458-0.056-1.479-0.114-2.963-0.169-4.45-0.33-8.833-0.656-17.796-0.927-26.819h-359.477c-0.271 9.023-0.601 17.986-0.931 26.819-0.056 1.486-0.11 2.968-0.165 4.446-0.754 20.125-1.479 39.52-1.65 58.462-0.37 41.072 1.993 76.317 10.804 105.265 8.456 27.782 22.495 48.722 46.012 63.588 24.503 15.49 63.291 26.904 125.669 26.904zM247.231 518.454h532.904c32.015 0 57.962-25.953 57.962-57.965v-387.562c0-32.011-25.946-57.965-57.962-57.965h-532.904c-32.011 0-57.962 25.954-57.962 57.965v387.562c0 32.012 25.95 57.965 57.962 57.965zM518.285 390.346c-1.013 0.021-2.032 0.016-3.058-0.020-32.826 0-59.3-28.227-59.3-63.231 0-23.712 11.648-44.039 29.65-55.331v-103.881c0-16.936 12.707-31.615 29.65-31.615 15.884 0 29.65 13.545 29.65 31.615v103.881c18.002 11.292 29.65 31.619 29.65 55.331 0 35.004-24.845 62.587-56.242 63.25z" />
<glyph unicode="&#xe912;" glyph-name="max" d="M2.984 604.125v-341.957h60.023v112.734l-5.957 150.543 102.184-263.277h43.109l102.422 263.512-5.957-150.777v-112.734h60.023v341.957h-77.887l-99.797-262.105-100.039 262.105zM534.613 604.125l-131-341.957h62.641l28.105 79.617h134.336l28.348-79.617h62.875l-131.234 341.957zM736.359 604.125l105.035-169.57-107.422-172.387h70.027l74.793 125.414 74.547-125.414h70.266l-107.184 172.387 104.805 169.57h-69.551l-72.883-123.535-72.887 123.535zM561.531 531.555l50.254-141.859h-100.512z" />
<glyph unicode="&#xe913;" glyph-name="redo-alt" d="M200.289 959.992c-18.351-0.336-34.555-13.508-38.035-32.258l-51.18-275.719c-1.91-10.29 0.344-20.916 6.27-29.543s15.038-14.547 25.328-16.457l276.297-51.289c21.427-3.977 42.022 10.17 46 31.598s-10.17 42.022-31.598 46l-188.539 34.996c58.615 57.175 134.007 94.131 215.238 105.094 82.795 11.173 166.973-5.146 239.598-46.449 72.619-41.304 129.676-105.306 162.402-182.18 32.716-76.873 39.299-162.365 18.727-243.34-20.578-80.975-67.169-152.96-132.617-204.891s-146.138-80.937-229.672-82.563c-83.53-1.626-165.285 24.22-232.707 73.563s-116.781 119.45-140.492 199.566c-6.185 20.899-28.137 32.828-49.035 26.641-20.898-6.182-32.826-28.14-26.641-49.039 28.617-96.691 88.188-181.31 169.559-240.859s180.039-90.74 280.852-88.777c100.818 1.963 198.2 36.966 277.191 99.641s135.22 149.554 160.055 247.281c24.829 97.727 16.887 200.911-22.605 293.688-39.493 92.778-108.354 170.025-196 219.875-87.651 49.849-189.242 69.544-289.168 56.059-89.864-12.127-173.855-50.56-241.727-110.016l32.063 172.715c3.978 21.428-10.17 42.026-31.598 46.004-2.679 0.497-5.343 0.708-7.965 0.66z" />
<glyph unicode="&#xe914;" glyph-name="search" d="M1010 74.6l-199.4 199.4c-9 9-21.2 14-34 14h-32.6c55.2 70.6 88 159.4 88 256 0 229.8-186.2 416-416 416s-416-186.2-416-416 186.2-416 416-416c96.6 0 185.4 32.8 256 88v-32.6c0-12.8 5-25 14-34l199.4-199.4c18.8-18.8 49.2-18.8 67.8 0l56.6 56.6c18.8 18.8 18.8 49.2 0.2 68zM416 288c-141.4 0-256 114.4-256 256 0 141.4 114.4 256 256 256 141.4 0 256-114.4 256-256 0-141.4-114.4-256-256-256z" />
<glyph unicode="&#xe915;" glyph-name="up" d="M21.352 199.895c6.813-6.869 14.919-12.321 23.849-16.041s18.511-5.636 28.186-5.636c9.675 0 19.254 1.915 28.185 5.636s17.036 9.173 23.85 16.041l335.663 335.663c6.813 6.869 14.919 12.321 23.849 16.041s18.511 5.636 28.186 5.636c9.675 0 19.254-1.915 28.185-5.636s17.036-9.173 23.85-16.041l335.663-335.663c6.81-6.869 14.921-12.321 23.852-16.041s18.508-5.636 28.182-5.636c9.674 0 19.25 1.915 28.182 5.636s17.042 9.173 23.853 16.041c13.651 13.732 21.312 32.307 21.312 51.669s-7.661 37.937-21.312 51.669l-336.394 336.394c-41.225 41.174-97.108 64.301-155.372 64.301s-114.148-23.127-155.372-64.301l-336.396-336.394c-13.65-13.731-21.312-32.307-21.312-51.669s7.662-37.936 21.312-51.669z" />
<glyph unicode="&#xe916;" glyph-name="wallet" d="M148.145 871.602c-81.689 0-148.145-66.46-148.145-148.148v-553.078c0-81.689 66.456-148.145 148.145-148.145h730.855c81.689 0 148.148 66.455 148.148 148.145v128.395h-276.543c-81.689 0-148.141 66.454-148.141 148.145 0 81.688 66.452 148.148 148.141 148.148h276.543v128.391c0 81.688-66.459 148.148-148.148 148.148zM746.988 537.301c-49.012 0-88.891-39.876-88.891-88.891s39.877-88.887 88.891-88.887h276.539v177.773h-276.539zM746.988 478.039h39.504c16.364 0 29.629-13.266 29.629-29.629s-13.265-29.629-29.629-29.629h-39.504c-16.364 0-29.629 13.267-29.629 29.629s13.267 29.629 29.629 29.629z" />
<glyph unicode="&#xe917;" glyph-name="warning" d="M520.828 959.863c-12.473 0.041-24.833-2.45-36.32-7.316s-21.87-12.009-30.527-21c-8.65-8.991-15.389-19.641-19.813-31.309s-6.427-24.111-5.91-36.578l23.758-496.555c0.797-17.252 8.21-33.533 20.703-45.461 12.493-11.921 29.109-18.565 46.375-18.543 17.14 0.063 33.603 6.677 46.020 18.5 12.41 11.816 19.832 27.943 20.727 45.055l27.223 496.445c0.601 12.484-1.344 24.957-5.711 36.668s-11.061 22.414-19.684 31.461c-8.622 9.047-18.997 16.251-30.484 21.172s-23.855 7.46-36.355 7.461zM520.805 146.855c-57.975 0-104.977-46.999-104.977-104.98 0-57.975 47.002-104.98 104.977-104.98 57.982 0 104.98 47.006 104.98 104.98 0 57.982-46.999 104.98-104.98 104.98z" />
<glyph unicode="&#xe918;" glyph-name="circle-star" d="M512.291 958c-281.826 0-510.291-228.465-510.291-510.291v0c0-281.826 228.465-510.291 510.291-510.291v0c281.826 0 510.291 228.465 510.291 510.291v0c0 281.826-228.465 510.291-510.291 510.291v0zM511.958 848.699c11.835 0 20.91-11.13 23.089-27.74 25.54-261.209 52.924-297.835 243.85-326.075 12.766-2.076 21.76-14.368 21.76-30.564 0-15.781-8.995-28.737-21.76-30.398-190.926-28.239-218.622-65.198-243.85-326.407-2.18-16.61-11.254-27.74-23.089-27.74-11.213 0-20.576 11.13-22.757 27.74-27.096 260.794-52.926 292.354-243.85 326.407-12.769 2.076-21.76 14.617-21.76 30.398 0 16.196 8.991 28.488 21.76 30.564 190.924 27.824 218.311 64.866 243.85 326.075 2.181 16.611 11.544 27.74 22.757 27.74z" />
<glyph unicode="&#xe919;" glyph-name="circle-xmark-solid" d="M512 960c-282.8 0-512-229.2-512-512s229.2-512 512-512c282.8 0 512 229.2 512 512s-229.2 512-512 512zM672.2 354c18.75-18.75 18.75-49.12 0-67.88-18.762-18.762-49.12-18.746-67.88 0l-92.32 94.080-94.060-94.060c-18.762-18.762-49.12-18.746-67.88 0-18.75 18.75-18.75 49.12 0 67.88l94.060 94.060-94.12 95.72c-18.75 18.75-18.75 49.12 0 67.88s49.12 18.75 67.88 0l94.12-95.88 94.060 94.060c18.75 18.75 49.12 18.75 67.88 0s18.75-49.12 0-67.88l-94.060-94.060 92.32-93.92z" />
<glyph unicode="&#xe91a;" glyph-name="switch" d="M503.642 959.377c-49.028-0.57-97.966-8.712-145.042-24.404l-73.212-24.404c-50.361-16.787-84.331-63.915-84.331-117v-700.373c0-53.086 33.97-100.211 84.331-116.996l3.235-1.085c139.662-46.551 290.381-48.304 431.088-5.008l22.142 6.815c51.748 15.921 87.062 63.733 87.062 117.869v697.181c0 54.142-35.314 101.951-87.062 117.873l-92.638 28.508c-47.428 14.593-96.545 21.593-145.573 21.023zM369.235 867.612l29.015-9.673c21.721-7.241 44.47-10.931 67.365-10.931h93.308c27.101 0 53.953 5.17 79.115 15.235l12.95 5.181 71.085-21.873c23.522-7.237 39.573-28.967 39.573-53.577v-697.181c0-24.608-16.052-46.337-39.573-53.577l-22.146-6.812c-127.306-39.171-263.669-37.589-390.031 4.535l-3.235 1.077c-22.891 7.63-38.331 29.053-38.331 53.181v700.373c0 24.129 15.44 45.551 38.331 53.181zM521.308 650.854c-24.756 0-44.627-19.547-44.627-43.977 0-24.104 19.871-43.973 44.627-43.973s44.3 19.869 44.3 43.973c0 24.43-19.544 43.977-44.3 43.977zM517.527 510.788c-20.219 0-36.612-16.393-36.612-36.612v-179.123c0-20.219 16.393-36.612 36.612-36.612h7.885c20.219 0 36.612 16.393 36.612 36.612v179.123c0 20.219-16.393 36.612-36.612 36.612z" />
<glyph unicode="&#xe91b;" glyph-name="network" d="M831.915 952.614c-105.766 0-193.227-88.133-193.227-194.71 0-8.314 0.563-16.626 1.669-24.837l-197.454-70.623c-42.927 71.251-119.624 115.962-204.923 115.962-130.178 0-237.981-106.58-237.981-239.802 0-131.173 105.769-239.802 237.981-239.802 52.822 0 103.385 16.958 145.081 48.297l87.281-73.569c-18.387-32.521-28.958-70.055-28.958-110.006 0-122.968 99.665-223.406 221.708-223.406 124.075 0 221.708 100.437 221.708 223.406 0 122.978-99.665 223.406-221.708 223.406-53.147 0-102.038-19.055-140.315-50.714l-83.885 70.704c24.853 38.647 39.104 83.721 39.104 131.684 0 15.795-2.178 31.59-5.619 47.385l195.392 69.886c34.116-57.019 96.289-92.681 164.146-92.681 107.81 0 193.235 88.132 193.235 194.71s-87.465 194.71-193.235 194.71zM831.915 870.629c63.061 0 111.877-51.239 111.877-112.726s-50.855-112.726-111.877-112.726c-46.78 0-89.493 30.742-105.765 75.833-4.068 10.248-6.1 24.596-6.1 36.893 0 61.487 50.851 112.726 111.865 112.726zM237.981 698.471c67.123 0 126.111-43.044 148.485-102.482 4.068-16.396 8.135-34.843 8.135-53.289 0-38.941-12.203-73.783-36.612-102.477-28.476-36.892-73.225-57.386-120.008-57.386-85.429 0-156.619 69.685-156.619 157.817 0 86.082 69.156 157.817 156.619 157.817zM663.092 304.945c79.327 0 140.35-63.535 140.35-141.421 0-77.878-63.057-141.421-140.35-141.421s-140.346 63.543-140.346 141.421c0 77.886 63.053 141.421 140.346 141.421z" />
<glyph unicode="&#xe91c;" glyph-name="logout" d="M299.438 959.654c-106.23 0-192.346-88.037-192.346-196.638v-629.25c0-108.598 86.117-196.638 192.346-196.638h359.042c21.246 0 38.469 17.61 38.469 39.327 0 21.724-17.223 39.327-38.469 39.327h-359.042c-63.738 0-115.408 52.827-115.408 117.985v629.25c0 65.161 51.67 117.985 115.408 117.985h359.042c21.246 0 38.469 17.607 38.469 39.327s-17.223 39.327-38.469 39.327zM761.027 641.185c-11.484-0.204-22.891-4.887-31.5-14-16.797-17.78-16.797-45.97 0-63.75l83.231-85.062-407.854-0.642c-24.786 0-44.881-20.542-44.881-45.881s20.095-45.881 44.881-45.881l407.346 0.642-82.727-84.577c-17.828-17.604-18.323-46.647-1.104-64.873s45.633-18.731 63.462-1.127c0.374 0.37 0.74 0.745 1.1 1.127l96.1 98.246c52.58 53.752 52.582 140.904 0.004 194.658l-96.1 98.246c-8.914 8.802-20.474 13.077-31.958 12.873z" />
<glyph unicode="&#xe91d;" glyph-name="key" d="M676.838 958.488c-70.415 1.932-140.084-16.987-200.096-54.719-68.586-43.122-120.49-108.259-147.204-184.738s-26.654-159.766 0.169-236.208l-48.104-48.096c-5.447-5.217-9.749-11.508-12.635-18.477s-4.288-14.46-4.123-22v-56.912h-48.1c-17.318 0-33.928-6.879-46.173-19.123s-19.123-28.85-19.123-46.165v-48.096h-56.808c-14.981-0.047-29.35-5.94-40.046-16.427l-37.765-37.758c-9.927-10.013-15.484-23.552-15.454-37.65v-149.946c0.029-12.401 4.969-24.291 13.738-33.062 8.77-8.763 20.656-13.698 33.058-13.731h149.962c7.034-0.024 14.007 1.354 20.508 4.042s12.402 6.644 17.365 11.631l312.765 312.727c76.449-26.819 159.742-26.877 236.231-0.165 76.483 26.711 141.631 78.606 184.762 147.185 43.122 68.578 61.679 149.772 52.608 230.273-9.063 80.501-45.202 155.535-102.504 212.808-57.277 57.293-132.322 93.432-212.831 102.496-10.064 1.133-20.141 1.836-30.2 2.112zM669.815 893.358c8.418-0.083 16.854-0.526 25.288-1.342 67.477-6.533 130.585-36.327 178.515-84.273l0.212-0.108c47.995-47.921 77.816-111.039 84.362-178.538s-10.6-135.171-48.492-191.415c-37.892-56.245-94.171-97.558-159.188-116.858s-134.723-15.384-197.169 11.077c-5.984 2.534-12.587 3.225-18.965 1.985s-12.241-4.358-16.838-8.95l-324.3-324.158h-126.565v126.55l31.888 31.885h76.938c11.141 0 21.827 4.427 29.704 12.304s12.304 18.554 12.304 29.696v70.838h70.627c11.14 0 21.826 4.427 29.704 12.304s12.304 18.56 12.304 29.7v76.823l60.723 60.719c4.592 4.596 7.709 10.457 8.95 16.835s0.549 12.983-1.985 18.965c-26.409 62.433-30.284 132.105-10.962 197.081s60.639 121.211 116.873 159.073c49.204 33.13 107.15 50.387 166.073 49.808zM736.823 790.662c-31.748 0-62.197-12.614-84.646-35.062s-35.062-52.889-35.062-84.635c0-23.673 7.020-46.816 20.173-66.5s31.849-35.026 53.723-44.085c21.874-9.060 45.943-11.43 69.165-6.812 23.218 4.618 44.551 16.018 61.288 32.758 16.745 16.74 28.148 38.066 32.769 61.285 4.613 23.219 2.243 47.286-6.812 69.158-9.063 21.871-24.403 40.567-44.088 53.719s-42.832 20.173-66.512 20.173zM735.954 725.373c7.155 0.014 14.241-1.384 20.854-4.112 6.619-2.728 12.629-6.735 17.688-11.788 5.067-5.054 9.086-11.054 11.823-17.662 2.745-6.608 4.158-13.692 4.158-20.846h-0.111c0-10.76-3.192-21.279-9.169-30.227s-14.479-15.92-24.419-20.038c-9.943-4.118-20.884-5.196-31.438-3.096s-20.252 7.279-27.862 14.888c-7.61 7.609-12.793 17.304-14.892 27.858s-1.022 21.493 3.096 31.435c4.119 9.942 11.095 18.438 20.042 24.415s19.469 9.173 30.231 9.173z" />
<glyph unicode="&#xe91e;" glyph-name="wallet-alt" d="M147.641 872c-81.41 0-147.641-66.746-147.641-148.789v-555.477c0-82.047 66.23-148.789 147.641-148.789h728.371c81.41 0 147.641 66.742 147.641 148.789v188.469h0.012v178.543h-0.012v188.465c0 82.043-66.231 148.789-147.641 148.789h-728.371zM147.641 792.027h728.371c37.58 0 68.285-30.942 68.285-68.816v-188.465l-196.23 0.004c-48.846 0-88.586-40.047-88.586-89.273s39.74-89.273 88.586-89.273h196.23v-188.469c0-37.876-30.705-68.816-68.285-68.816h-728.371c-37.583 0-68.285 30.941-68.285 68.816v555.477c0 37.874 30.702 68.816 68.285 68.816zM748.066 475.234h39.371c16.31 0 29.527-13.325 29.527-29.758s-13.217-29.758-29.527-29.758h-39.371c-16.31 0-29.527 13.325-29.527 29.758s13.223 29.758 29.527 29.758z" />
<glyph unicode="&#xe91f;" glyph-name="squared-plus" d="M210.965 960.156c-116.326 0-210.625-94.303-210.625-210.629v-601.785c0-116.326 94.299-210.625 210.625-210.625h601.789c116.326 0 210.625 94.299 210.625 210.625v601.785c0 116.326-94.299 210.629-210.625 210.629h-601.789zM210.965 869.887h601.789c66.473 0 120.355-53.888 120.355-120.359v-601.785c0-66.473-53.882-120.359-120.355-120.359h-601.789c-66.472 0-120.355 53.886-120.355 120.359v601.785c0 66.472 53.884 120.359 120.355 120.359zM511.859 719.441c-16.618-0.001-30.090-13.477-30.090-30.094v-210.621h-210.625c-16.618 0-30.089-13.472-30.090-30.090s13.472-30.089 30.090-30.090l210.625-0.008v-210.617c0-16.615 13.472-30.090 30.090-30.090s30.089 13.474 30.090 30.090l0.008 210.625h210.617c16.615 0 30.090 13.468 30.090 30.086s-13.475 30.093-30.090 30.094l-210.605 0.016-0.020 210.609c-0.001 16.618-13.473 30.090-30.090 30.090z" />
<glyph unicode="&#xe920;" glyph-name="bookmarks" d="M253.582 960c-56.644 0-110.966-22.501-151.020-62.555s-62.559-94.379-62.559-151.023v-690.027c-0.226-24.055 6.81-47.619 20.184-67.613s32.463-35.493 54.781-44.465c22.099-9.449 46.535-12.021 70.117-7.387 23.582 4.641 45.219 16.279 62.090 33.398l262.699 261.332 262.699-261.164c11.093-11.26 24.298-20.205 38.871-26.328 14.567-6.117 30.206-9.295 46.004-9.34 16.307-0.032 32.456 3.191 47.5 9.488 22.288 9.004 41.341 24.51 54.684 44.504s20.352 43.539 20.113 67.574v690.027c0 28.048-5.526 55.822-16.258 81.734s-26.464 49.456-46.297 69.289c-19.833 19.832-43.378 35.564-69.289 46.297-25.917 10.733-53.684 16.258-81.734 16.258h-512.586zM253.582 874.57h512.668c33.987 0 66.582-13.503 90.617-37.535 24.029-24.032 37.531-56.626 37.531-90.613v-689.938c0.013-7.122-2.081-14.082-6.020-20.012-3.938-5.923-9.545-10.551-16.113-13.297-6.568-2.739-13.805-3.476-20.785-2.109-6.987 1.366-13.414 4.771-18.461 9.785l-292.816 291.277c-8.003 7.956-18.829 12.422-30.113 12.422s-22.114-4.466-30.117-12.422l-293.156-291.359c-5.051-5.015-11.471-8.427-18.457-9.793s-14.221-0.632-20.789 2.113c-6.569 2.739-12.178 7.367-16.117 13.297s-6.031 12.892-6.016 20.008v690.027c0 33.987 13.499 66.581 37.531 90.613s56.627 37.535 90.613 37.535z" />
<glyph unicode="&#xe921;" glyph-name="arrow-left" d="M494.883 943.5c-12.244 0-24.49-4.67-33.832-14.012l-446.539-446.539c-18.684-18.684-18.684-48.976 0-67.66l446.539-446.539c18.684-18.684 48.976-18.684 67.66 0s18.684 48.972 0 67.656l-364.863 364.867h809.469c26.422 0 47.844 21.421 47.844 47.844s-21.421 47.844-47.844 47.844h-809.469l364.863 364.863c18.684 18.684 18.684 48.98 0 67.664-9.342 9.342-21.584 14.012-33.828 14.012z" />
<glyph unicode="&#xe922;" glyph-name="arrow-right" d="M526.203 939.605c-12.237 0-24.473-4.672-33.809-14.008-18.672-18.672-18.672-48.945 0-67.617l364.633-364.633h-808.957c-26.406 0-47.812-21.41-47.812-47.816s21.406-47.812 47.812-47.812h808.957l-364.633-364.637c-18.672-18.673-18.672-48.941 0-67.613s48.945-18.673 67.617 0l446.258 446.254c18.673 18.672 18.673 48.945 0 67.617l-446.258 446.258c-9.336 9.336-21.572 14.008-33.809 14.008z" />
<glyph unicode="&#xe923;" glyph-name="circles" d="M504.043 960c-70.423 0-128.043-57.62-128.043-128.043s57.62-128.039 128.043-128.039c70.423 0 128.039 57.616 128.039 128.039s-57.616 128.043-128.039 128.043zM504.043 575.875c-70.423 0-128.043-57.616-128.043-128.039s57.62-128.043 128.043-128.043c70.423 0 128.039 57.62 128.039 128.043s-57.616 128.039-128.039 128.039zM504.043 191.754c-70.423 0-128.043-57.62-128.043-128.043s57.62-128.039 128.043-128.039c70.423 0 128.039 57.616 128.039 128.039s-57.616 128.043-128.039 128.043z" />
<glyph unicode="&#xe924;" glyph-name="plus" d="M512.164 959.5c-27.346-0.001-49.516-22.174-49.516-49.52v-412.629h-412.633c-27.346 0-49.515-22.17-49.516-49.516s22.169-49.514 49.516-49.516l412.633-0.020v-412.613c0-27.346 22.17-49.516 49.516-49.516s49.514 22.17 49.516 49.516l0.020 412.633h412.613c27.346 0 49.516 22.166 49.516 49.512s-22.17 49.518-49.516 49.52l-412.598 0.035-0.035 412.602c-0.003 27.347-22.17 49.513-49.516 49.512z" />
<glyph unicode="&#xe925;" glyph-name="lock-fill" d="M514.727 956.426c-133.198 0-242.211-109.016-242.211-242.211v-148.801c-43.904-12.86-75.996-53.367-75.996-101.43v-422.988c0-58.402 47.344-105.746 105.746-105.746h422.988c58.402 0 105.746 47.344 105.746 105.746v422.988c0 47.362-31.142 87.442-74.063 100.906v149.324c0 133.194-109.013 242.211-242.211 242.211zM514.727 859.543c80.839 0 145.328-64.492 145.328-145.328v-144.484h-290.652v144.484c0 80.836 64.485 145.328 145.324 145.328z" />
<glyph unicode="&#xe926;" glyph-name="info" d="M512 960c-282.77 0-512-229.23-512-512 0-282.767 229.23-512 512-512 282.767 0 512 229.233 512 512 0 282.77-229.233 512-512 512zM512 894.637c246.671 0 446.637-199.965 446.637-446.637s-199.965-446.637-446.637-446.637c-246.671 0-446.637 199.965-446.637 446.637s199.965 446.637 446.637 446.637zM512 665.871c-24.066 0-43.574-19.509-43.574-43.574s19.509-43.574 43.574-43.574c24.064 0 43.578 19.509 43.578 43.574s-19.514 43.574-43.578 43.574zM468.426 524.254c-18.050 0-32.68-14.63-32.68-32.68s14.63-32.68 32.68-32.68h10.895v-152.516h-10.895c-18.050 0-32.68-14.627-32.68-32.68 0-18.048 14.63-32.68 32.68-32.68h87.152c18.048 0 32.68 14.632 32.68 32.68 0 18.053-14.632 32.68-32.68 32.68h-10.898v185.195c0 18.050-14.632 32.68-32.68 32.68z" />
<glyph unicode="&#xe927;" glyph-name="wallet-connect" d="M509.942 825.777c-68.809 0-136.943-13.582-200.492-39.969s-121.264-65.060-169.835-113.8l68.654-68.419c39.567 39.705 86.582 71.208 138.35 92.704s107.27 32.562 163.323 32.562c56.054 0 111.552-11.066 163.319-32.562 51.773-21.496 98.788-52.999 138.354-92.704l68.654 68.419c-48.57 48.739-106.285 87.413-169.838 113.8-63.548 26.388-131.679 39.969-200.488 39.969zM509.546 449.788l-237.177-237.177-202.908 202.908-68.538-68.538 271.446-271.442 237.177 237.177 237.177-237.177 271.442 271.442-68.535 68.538-202.908-202.908z" />
<glyph unicode="&#xe928;" glyph-name="document" d="M310.35 954.999c-53.179 0-86.291 2.38-121.537-15.578-26.794-13.652-48.661-35.395-62.314-62.19-17.958-35.246-15.578-68.481-15.578-121.66v-613.99c0-53.181-2.377-86.416 15.578-121.66 13.639-26.764 35.429-48.534 62.19-62.19 35.246-17.96 68.481-15.579 121.661-15.579h398.117c53.181 0 86.416-2.379 121.66 15.579 26.793 13.653 48.537 35.397 62.19 62.19 17.957 35.244 15.579 68.48 15.579 121.66v432.983c0 23.225 0.456 38.514-3.956 56.874-3.487 14.542-9.243 28.421-17.062 41.172-9.86 16.102-21.034 26.602-37.463 43.026l-180.883 181.007c-16.422 16.421-26.932 27.477-43.026 37.339-12.743 7.809-26.638 13.573-41.172 17.062-18.352 4.406-33.649 3.956-56.874 3.956zM310.35 860.044h178.534v-124.504c0-53.18-2.38-86.415 15.578-121.661 13.653-26.795 35.395-48.661 62.19-62.314 35.246-17.959 68.481-15.455 121.661-15.455h124.628v-394.531c0-53.181-2.45-73.127-5.193-78.511-4.553-8.935-11.837-16.218-20.771-20.771-5.383-2.743-25.33-5.193-78.511-5.193h-398.117c-53.18 0-73.132 2.452-78.511 5.193-8.936 4.553-16.217 11.834-20.771 20.771-2.743 5.384-5.193 25.33-5.193 78.511v613.99c0 53.18 2.452 73.132 5.193 78.511 4.554 8.938 11.832 16.217 20.771 20.771 5.378 2.74 25.332 5.193 78.511 5.193zM583.839 845.702c3.857-3.271 6.235-4.875 17.557-16.197l180.883-181.007c11.253-11.25 12.916-13.573 16.197-17.433h-110.162c-53.18 0-73.133 2.453-78.511 5.193-8.939 4.555-16.217 11.709-20.771 20.648-2.74 5.377-5.193 25.455-5.193 78.634z" />
<glyph unicode="&#xe929;" glyph-name="chart" d="M927.998 128c-0.001-17.673-14.327-31.999-32-32h-768c-17.673 0.001-31.999 14.327-32 32v0 640c0 17.673 14.327 32 32 32s32-14.327 32-32v0-377.492l202.941 177.574c5.597 4.917 12.984 7.917 21.071 7.917 7.24 0 13.918-2.404 19.279-6.458l-0.080 0.058 235.25-176.436 236.48 206.918c5.602 4.933 13 7.943 21.101 7.943 17.672 0 31.998-14.326 31.998-31.998 0-9.6-4.227-18.212-10.922-24.077l-0.037-0.032-256-224c-5.597-4.917-12.984-7.918-21.071-7.918-7.24 0-13.918 2.404-19.279 6.458l0.080-0.058-235.25 176.436-225.563-197.365v-145.471h736c17.673-0.001 31.999-14.327 32-32v0z" />
<glyph unicode="&#xe92a;" glyph-name="preferences" d="M395.609 891.5c-72.781 0-134.806-49.348-154.035-116.152h-196.223c-24.054-0.001-43.554-19.501-43.555-43.555-0.001-24.056 19.499-43.558 43.555-43.559h196.223c19.23-66.803 81.254-116.148 154.035-116.148s134.805 49.345 154.035 116.148h429.723c24.057-0.001 43.56 19.501 43.559 43.559-0.001 24.056-19.503 43.556-43.559 43.555h-429.723c-19.23 66.804-81.254 116.152-154.035 116.152zM395.609 804.387c41.062 0 73.195-32.107 73.195-72.594s-32.133-72.594-73.195-72.594c-41.062 0-73.195 32.107-73.195 72.594s32.133 72.594 73.195 72.594zM687.488 310.746c-74.575 0-136.782-47.263-154.295-116.579l-20.834 0.427h-467.008c-24.054-0.001-43.554-19.501-43.555-43.555-0.001-24.056 19.499-43.558 43.555-43.559h467.008l20.345-0.728c17.408-69.463 80.104-115.42 154.784-115.42 72.78 0 134.805 49.344 154.035 116.148h137.844c24.057-0.001 43.56 19.501 43.559 43.559-0.001 24.056-19.503 43.556-43.559 43.555h-137.844c-19.229 66.806-81.253 116.152-154.035 116.152zM687.488 223.633c41.064 0 73.199-32.106 73.199-72.594s-32.136-72.594-73.199-72.594c-41.064 0-73.191 32.103-73.191 72.594s32.128 72.594 73.191 72.594z" />
</font>
</defs>
</svg>
